<svg width="11" height="13" viewBox="0 0 11 13" fill="none" xmlns="http://www.w3.org/2000/svg">
<path d="M6.375 7.80859C8.64844 7.80859 10.5 9.66016 10.5 11.9336C10.5 12.3555 10.1484 12.6836 9.75 12.6836H0.75C0.328125 12.6836 0 12.3555 0 11.9336C0 9.66016 1.82812 7.80859 4.125 7.80859H6.375ZM1.125 11.5586H9.35156C9.16406 10.082 7.89844 8.93359 6.375 8.93359H4.125C2.57812 8.93359 1.3125 10.082 1.125 11.5586ZM5.25 6.68359C3.58594 6.68359 2.25 5.34766 2.25 3.68359C2.25 2.04297 3.58594 0.683594 5.25 0.683594C6.89062 0.683594 8.25 2.04297 8.25 3.68359C8.25 5.34766 6.89062 6.68359 5.25 6.68359ZM5.25 1.80859C4.19531 1.80859 3.375 2.65234 3.375 3.68359C3.375 4.73828 4.19531 5.55859 5.25 5.55859C6.28125 5.55859 7.125 4.73828 7.125 3.68359C7.125 2.65234 6.28125 1.80859 5.25 1.80859Z" fill="#034833"/>
</svg>
