<svg width="11" height="13" viewBox="0 0 11 13" fill="none" xmlns="http://www.w3.org/2000/svg">
<path d="M3.5625 2.18359H6.9375V1.24609C6.9375 0.941406 7.17188 0.683594 7.5 0.683594C7.80469 0.683594 8.0625 0.941406 8.0625 1.24609V2.18359H9C9.82031 2.18359 10.5 2.86328 10.5 3.68359V11.1836C10.5 12.0273 9.82031 12.6836 9 12.6836H1.5C0.65625 12.6836 0 12.0273 0 11.1836V3.68359C0 2.86328 0.65625 2.18359 1.5 2.18359H2.4375V1.24609C2.4375 0.941406 2.67188 0.683594 3 0.683594C3.30469 0.683594 3.5625 0.941406 3.5625 1.24609V2.18359ZM1.125 6.49609H3V5.18359H1.125V6.49609ZM1.125 7.62109V9.12109H3V7.62109H1.125ZM4.125 7.62109V9.12109H6.375V7.62109H4.125ZM7.5 7.62109V9.12109H9.375V7.62109H7.5ZM9.375 5.18359H7.5V6.49609H9.375V5.18359ZM9.375 10.2461H7.5V11.5586H9C9.1875 11.5586 9.375 11.3945 9.375 11.1836V10.2461ZM6.375 10.2461H4.125V11.5586H6.375V10.2461ZM3 10.2461H1.125V11.1836C1.125 11.3945 1.28906 11.5586 1.5 11.5586H3V10.2461ZM6.375 5.18359H4.125V6.49609H6.375V5.18359Z" fill="#034833"/>
</svg>
