<svg width="35" height="45" viewBox="0 0 35 45" fill="none" xmlns="http://www.w3.org/2000/svg">
<path d="M32.3535 0H9.50195C9.33942 0.00206076 9.18383 0.0662089 9.06707 0.179297L0.453789 8.79258C0.340376 8.90921 0.275853 9.0648 0.273438 9.22746V42.6259C0.273903 43.2552 0.524035 43.8587 0.968937 44.3038C1.41384 44.7489 2.01716 44.9993 2.64648 45H32.3535C32.9827 44.9993 33.5858 44.749 34.0307 44.3041C34.4756 43.8593 34.7258 43.2561 34.7266 42.627V2.37199C34.7255 1.74303 34.4752 1.14014 34.0303 0.695498C33.5855 0.250855 32.9825 0.00074372 32.3535 0ZM8.88672 2.09953V8.61328H2.37402L5.6302 5.35711L8.88672 2.09953ZM33.4961 42.6259C33.4957 42.9288 33.3752 43.2192 33.161 43.4334C32.9468 43.6476 32.6564 43.7681 32.3535 43.7685H2.64648C2.34357 43.7681 2.05316 43.6476 1.83897 43.4334C1.62478 43.2192 1.50428 42.9288 1.50391 42.6259V9.84375H9.50195C9.58284 9.84375 9.66292 9.8278 9.73764 9.79682C9.81235 9.76583 9.88022 9.72042 9.93736 9.66318C9.99451 9.60594 10.0398 9.53799 10.0707 9.46323C10.1015 9.38846 10.1173 9.30834 10.1172 9.22746V1.23047H32.3535C32.6564 1.23084 32.9468 1.35134 33.161 1.56553C33.3752 1.77973 33.4957 2.07013 33.4961 2.37305V42.6259Z" fill="#034833"/>
<path d="M5.83224 13.3245C6.35636 13.6851 6.95309 13.9266 7.58049 14.0319C8.20789 14.1372 8.85075 14.1038 9.46388 13.9341L7.68111 17.4209H7.1274C7.04659 17.4209 6.96657 17.4368 6.8919 17.4677C6.81724 17.4986 6.7494 17.5439 6.69226 17.601C6.63512 17.6582 6.5898 17.726 6.5589 17.8007C6.528 17.8753 6.51212 17.9554 6.51216 18.0362V19.2934C6.51281 19.8573 6.73711 20.3979 7.13585 20.7966C7.53459 21.1954 8.07521 21.4197 8.63912 21.4203H12.6564C13.2203 21.4197 13.7609 21.1953 14.1596 20.7966C14.5582 20.3978 14.7825 19.8572 14.783 19.2934V18.0355C14.7831 17.9547 14.7672 17.8746 14.7363 17.8C14.7054 17.7253 14.6601 17.6575 14.6029 17.6003C14.5458 17.5432 14.4779 17.4979 14.4033 17.467C14.3286 17.4361 14.2486 17.4202 14.1678 17.4202H13.6144L11.4829 13.2518L11.9213 13.1013C12.9187 12.7562 13.9994 12.7334 15.0105 13.0359L15.7516 13.256V23.0055H10.7858C10.3722 23.0059 9.97562 23.1703 9.68316 23.4628C9.39071 23.7552 9.22625 24.1518 9.22587 24.5654V25.3982H8.43697C8.07347 25.3987 7.725 25.5433 7.46797 25.8003C7.21094 26.0574 7.06634 26.4058 7.06587 26.7693V28.281C7.06597 28.4442 7.13082 28.6006 7.24617 28.716C7.36153 28.8313 7.51797 28.8962 7.68111 28.8963H27.3204C27.4836 28.8962 27.64 28.8313 27.7554 28.716C27.8707 28.6006 27.9356 28.4442 27.9357 28.281V26.7693C27.9352 26.4058 27.7906 26.0574 27.5336 25.8003C27.2766 25.5433 26.9281 25.3987 26.5646 25.3982H25.7746V24.5654C25.7743 24.1519 25.6099 23.7555 25.3176 23.463C25.0253 23.1706 24.6289 23.0061 24.2154 23.0055H19.2496V13.256L19.9907 13.0359C21.0018 12.733 22.0825 12.7559 23.0799 13.1013L23.5183 13.2518L21.3868 17.4206H20.8331C20.6699 17.4206 20.5134 17.4854 20.398 17.6008C20.2826 17.7162 20.2178 17.8726 20.2178 18.0358V19.293C20.2185 19.8569 20.4428 20.3975 20.8415 20.7963C21.2403 21.195 21.7809 21.4193 22.3448 21.42H26.3621C26.926 21.4193 27.4666 21.195 27.8653 20.7963C28.2641 20.3975 28.4884 19.8569 28.489 19.293V18.0355C28.4891 17.9547 28.4732 17.8746 28.4423 17.8C28.4114 17.7253 28.3661 17.6575 28.3089 17.6003C28.2518 17.5432 28.184 17.4979 28.1093 17.467C28.0346 17.4361 27.9546 17.4202 27.8738 17.4202H27.3201L25.5373 13.9338C26.1504 14.1035 26.7933 14.1369 27.4207 14.0317C28.0481 13.9264 28.6448 13.6851 29.169 13.3245C29.2355 13.2786 29.2923 13.22 29.3362 13.1521C29.3801 13.0842 29.4102 13.0083 29.4247 12.9288C29.4393 12.8493 29.438 12.7677 29.4211 12.6886C29.4041 12.6096 29.3717 12.5346 29.3258 12.4681C29.2798 12.4016 29.2212 12.3448 29.1533 12.3009C29.0854 12.257 29.0096 12.2269 28.93 12.2124C28.8505 12.1978 28.7689 12.199 28.6898 12.216C28.6108 12.233 28.5359 12.2654 28.4693 12.3113C28.0652 12.5881 27.602 12.7666 27.1166 12.8327C26.6312 12.8987 26.1371 12.8504 25.6737 12.6917L23.4803 11.9373C22.2403 11.5082 20.8969 11.4798 19.6399 11.856L19.2496 11.9721V11.2503C19.6061 10.9025 19.8507 10.4564 19.9524 9.96894C20.054 9.48145 20.0081 8.97472 19.8203 8.51348C19.6326 8.05225 19.3116 7.65744 18.8984 7.37951C18.4853 7.10157 17.9986 6.95312 17.5006 6.95312C17.0026 6.95312 16.516 7.10157 16.1028 7.37951C15.6896 7.65744 15.3686 8.05225 15.1809 8.51348C14.9931 8.97472 14.9472 9.48145 15.0488 9.96894C15.1505 10.4564 15.3951 10.9025 15.7516 11.2503V11.9717L15.3613 11.8557C14.1043 11.4795 12.7609 11.5079 11.5209 11.9369L9.32747 12.6917C8.86402 12.8501 8.36998 12.8983 7.88467 12.8322C7.39935 12.7662 6.93613 12.5878 6.53185 12.3113C6.39749 12.2185 6.23178 12.1829 6.07117 12.2124C5.91057 12.2418 5.76822 12.3338 5.67544 12.4681C5.58267 12.6025 5.54707 12.7682 5.57647 12.9288C5.60588 13.0894 5.69788 13.2318 5.83224 13.3245ZM27.2586 19.293C27.2583 19.5307 27.1637 19.7585 26.9957 19.9266C26.8276 20.0947 26.5998 20.1892 26.3621 20.1895H22.3448C22.1071 20.1892 21.8792 20.0947 21.7112 19.9266C21.5431 19.7585 21.4486 19.5307 21.4483 19.293V18.651H27.2586V19.293ZM22.7691 17.4206L24.3533 14.3223L25.9381 17.4206H22.7691ZM26.7066 26.7693V27.6658H8.29599V26.7693C8.29599 26.732 8.31081 26.6963 8.33718 26.6699C8.36355 26.6435 8.39932 26.6287 8.43662 26.6287H26.5642C26.5827 26.6287 26.6011 26.6323 26.6182 26.6393C26.6353 26.6464 26.6508 26.6567 26.6639 26.6698C26.677 26.6828 26.6874 26.6983 26.6945 26.7154C26.7016 26.7325 26.7052 26.7508 26.7052 26.7693H26.7066ZM24.5456 24.5654V25.3982H10.457V24.5654C10.4571 24.478 10.4919 24.3943 10.5536 24.3326C10.6154 24.2708 10.6991 24.2361 10.7865 24.236H24.2154C24.3027 24.2362 24.3862 24.2711 24.4478 24.3328C24.5094 24.3945 24.5441 24.4782 24.5442 24.5654H24.5456ZM17.5006 8.18714C17.7527 8.18707 17.9991 8.26177 18.2088 8.40177C18.4184 8.54178 18.5818 8.74081 18.6783 8.9737C18.7748 9.20658 18.8001 9.46285 18.7509 9.7101C18.7017 9.95734 18.5803 10.1845 18.4021 10.3627C18.2238 10.541 17.9967 10.6623 17.7495 10.7115C17.5022 10.7607 17.246 10.7354 17.0131 10.6389C16.7802 10.5424 16.5812 10.379 16.4412 10.1694C16.3012 9.95973 16.2265 9.71329 16.2265 9.4612C16.2269 9.12342 16.3613 8.79957 16.6001 8.56072C16.839 8.32187 17.1628 8.18751 17.5006 8.18714ZM17.5006 11.9661C17.6749 11.966 17.8487 11.9476 18.0192 11.9112V23.0055H16.982V11.9112C17.1525 11.9476 17.3263 11.966 17.5006 11.9661ZM13.5526 19.293C13.5524 19.5306 13.4579 19.7585 13.2899 19.9266C13.1219 20.0947 12.8941 20.1892 12.6564 20.1895H8.63912C8.40144 20.1892 8.17358 20.0947 8.00551 19.9266C7.83745 19.7585 7.74291 19.5307 7.74263 19.293V18.651H13.5526V19.293ZM9.0631 17.4206L10.6476 14.3223L12.2317 17.4206H9.0631Z" fill="#034833"/>
<path d="M31.2988 31.0352H3.70117C3.538 31.0352 3.38151 31.1 3.26614 31.2154C3.15076 31.3307 3.08594 31.4872 3.08594 31.6504C3.08594 31.8136 3.15076 31.9701 3.26614 32.0854C3.38151 32.2008 3.538 32.2656 3.70117 32.2656H31.2988C31.462 32.2656 31.6185 32.2008 31.7339 32.0854C31.8492 31.9701 31.9141 31.8136 31.9141 31.6504C31.9141 31.4872 31.8492 31.3307 31.7339 31.2154C31.6185 31.1 31.462 31.0352 31.2988 31.0352Z" fill="#034833"/>
<path d="M31.2988 34.2109H3.70117C3.538 34.2109 3.38151 34.2758 3.26614 34.3911C3.15076 34.5065 3.08594 34.663 3.08594 34.8262C3.08594 34.9893 3.15076 35.1458 3.26614 35.2612C3.38151 35.3766 3.538 35.4414 3.70117 35.4414H31.2988C31.462 35.4414 31.6185 35.3766 31.7339 35.2612C31.8492 35.1458 31.9141 34.9893 31.9141 34.8262C31.9141 34.663 31.8492 34.5065 31.7339 34.3911C31.6185 34.2758 31.462 34.2109 31.2988 34.2109Z" fill="#034833"/>
<path d="M31.2988 37.3906H3.70117C3.538 37.3906 3.38151 37.4554 3.26614 37.5708C3.15076 37.6862 3.08594 37.8427 3.08594 38.0059C3.08594 38.169 3.15076 38.3255 3.26614 38.4409C3.38151 38.5563 3.538 38.6211 3.70117 38.6211H31.2988C31.462 38.6211 31.6185 38.5563 31.7339 38.4409C31.8492 38.3255 31.9141 38.169 31.9141 38.0059C31.9141 37.8427 31.8492 37.6862 31.7339 37.5708C31.6185 37.4554 31.462 37.3906 31.2988 37.3906Z" fill="#034833"/>
<path d="M27.8732 40.5664H3.70117C3.538 40.5664 3.38151 40.6312 3.26614 40.7466C3.15076 40.862 3.08594 41.0185 3.08594 41.1816C3.08594 41.3448 3.15076 41.5013 3.26614 41.6167C3.38151 41.7321 3.538 41.7969 3.70117 41.7969H27.8732C28.0364 41.7969 28.1929 41.7321 28.3082 41.6167C28.4236 41.5013 28.4884 41.3448 28.4884 41.1816C28.4884 41.0185 28.4236 40.862 28.3082 40.7466C28.1929 40.6312 28.0364 40.5664 27.8732 40.5664Z" fill="#034833"/>
</svg>
