<svg width="45" height="46" viewBox="0 0 45 46" fill="none" xmlns="http://www.w3.org/2000/svg">
<path d="M42.2754 5.72656H2.72461C2.00226 5.7274 1.30973 6.01473 0.798944 6.52551C0.288163 7.03629 0.000837405 7.72882 0 8.45117L0 40.617C9.3144e-05 40.7802 0.0649422 40.9366 0.180301 41.052C0.29566 41.1673 0.452093 41.2322 0.615234 41.2323H44.3848C44.5479 41.2322 44.7043 41.1673 44.8197 41.052C44.9351 40.9366 44.9999 40.7802 45 40.617V8.45117C44.9992 7.72882 44.7118 7.03629 44.2011 6.52551C43.6903 6.01473 42.9977 5.7274 42.2754 5.72656ZM1.23047 8.45117C1.23093 8.05504 1.3885 7.67527 1.66861 7.39517C1.94871 7.11506 2.32848 6.9575 2.72461 6.95703H42.2754C42.6715 6.9575 43.0513 7.11506 43.3314 7.39517C43.6115 7.67527 43.7691 8.05504 43.7695 8.45117V14.0364H1.23047V8.45117ZM43.7695 40.0018H1.23047V15.2669H43.7695V40.0018Z" fill="#034833"/>
<path d="M41.5726 8.53906H14.6826C14.5194 8.53906 14.363 8.60388 14.2476 8.71926C14.1322 8.83464 14.0674 8.99113 14.0674 9.1543V11.8388C14.0674 12.002 14.1322 12.1585 14.2476 12.2739C14.363 12.3892 14.5194 12.4541 14.6826 12.4541H41.5726C41.7357 12.454 41.8922 12.3891 42.0075 12.2738C42.1229 12.1584 42.1877 12.002 42.1878 11.8388V9.1543C42.1877 8.99116 42.1229 8.83472 42.0075 8.71936C41.8922 8.604 41.7357 8.53916 41.5726 8.53906ZM40.9573 11.2236H15.2979V9.76953H40.9573V11.2236Z" fill="#034833"/>
<path d="M6.24023 8.53906H3.42773C3.26459 8.53916 3.10816 8.604 2.9928 8.71936C2.87744 8.83472 2.81259 8.99116 2.8125 9.1543V11.8388C2.81259 12.002 2.87744 12.1584 2.9928 12.2738C3.10816 12.3891 3.26459 12.454 3.42773 12.4541H6.24023C6.40338 12.454 6.55981 12.3891 6.67517 12.2738C6.79053 12.1584 6.85538 12.002 6.85547 11.8388V9.1543C6.85538 8.99116 6.79053 8.83472 6.67517 8.71936C6.55981 8.604 6.40338 8.53916 6.24023 8.53906ZM5.625 11.2236H4.04297V9.76953H5.625V11.2236Z" fill="#034833"/>
<path d="M11.8672 8.53906H9.05469C8.89155 8.53916 8.73511 8.604 8.61975 8.71936C8.5044 8.83472 8.43955 8.99116 8.43945 9.1543V11.8388C8.43955 12.002 8.5044 12.1584 8.61975 12.2738C8.73511 12.3891 8.89155 12.454 9.05469 12.4541H11.8672C12.0304 12.4541 12.1868 12.3892 12.3022 12.2739C12.4176 12.1585 12.4824 12.002 12.4824 11.8388V9.1543C12.4824 8.99113 12.4176 8.83464 12.3022 8.71926C12.1868 8.60388 12.0304 8.53906 11.8672 8.53906ZM11.252 11.2236H9.66992V9.76953H11.252V11.2236Z" fill="#034833"/>
<path d="M22.5001 37.1591C24.384 37.1592 26.2255 36.6006 27.792 35.5541C29.3584 34.5075 30.5792 33.02 31.3002 31.2795C32.0212 29.5391 32.2099 27.6239 31.8424 25.7763C31.4749 23.9286 30.5678 22.2314 29.2357 20.8993C27.9036 19.5672 26.2065 18.66 24.3588 18.2924C22.5112 17.9249 20.596 18.1135 18.8555 18.8344C17.1151 19.5553 15.6275 20.7761 14.5808 22.3425C13.5342 23.9089 12.9756 25.7504 12.9756 27.6343C12.9784 30.1595 13.9827 32.5805 15.7683 34.3662C17.5539 36.1518 19.9749 37.1563 22.5001 37.1591ZM22.5001 19.3402C24.1406 19.3401 25.7443 19.8265 27.1084 20.7379C28.4724 21.6493 29.5356 22.9447 30.1634 24.4603C30.7913 25.9759 30.9556 27.6437 30.6355 29.2527C30.3155 30.8617 29.5255 32.3396 28.3655 33.4997C27.2055 34.6597 25.7275 35.4496 24.1185 35.7697C22.5096 36.0897 20.8418 35.9254 19.3262 35.2976C17.8106 34.6698 16.5151 33.6066 15.6038 32.2425C14.6924 30.8785 14.206 29.2748 14.2061 27.6343C14.2086 25.4353 15.0832 23.3271 16.6381 21.7722C18.193 20.2174 20.3012 19.3427 22.5001 19.3402Z" fill="#034833"/>
<path d="M18.2171 32.3852H26.7825C26.9457 32.3851 27.1021 32.3203 27.2175 32.2049C27.3328 32.0895 27.3977 31.9331 27.3978 31.77V25.7248C27.3977 25.5617 27.3328 25.4053 27.2175 25.2899C27.1021 25.1746 26.9457 25.1097 26.7825 25.1096H25.6224L25.2462 23.3687C25.2166 23.2311 25.1407 23.1077 25.0312 23.0193C24.9216 22.9309 24.7851 22.8827 24.6443 22.8828H20.3553C20.2147 22.8828 20.0784 22.931 19.969 23.0193C19.8597 23.1075 19.7838 23.2306 19.7541 23.368L19.3779 25.1089H18.2178C18.0546 25.109 17.8982 25.1739 17.7828 25.2892C17.6675 25.4046 17.6026 25.561 17.6025 25.7241V31.77C17.6026 31.933 17.6674 32.0893 17.7826 32.2046C17.8978 32.32 18.0541 32.3849 18.2171 32.3852ZM18.8323 31.1547V28.9237H20.4495V28.9856C20.4495 29.1488 20.5143 29.3052 20.6297 29.4206C20.7451 29.536 20.9016 29.6008 21.0647 29.6008C21.2279 29.6008 21.3844 29.536 21.4998 29.4206C21.6151 29.3052 21.68 29.1488 21.68 28.9856V28.9237H23.3182V28.9856C23.3182 29.1488 23.3831 29.3052 23.4984 29.4206C23.6138 29.536 23.7703 29.6008 23.9335 29.6008C24.0966 29.6008 24.2531 29.536 24.3685 29.4206C24.4839 29.3052 24.5487 29.1488 24.5487 28.9856V28.9237H26.1659V31.1547H18.8323ZM20.852 24.1133H24.1472L24.3627 25.1089H20.6365L20.852 24.1133ZM25.1235 26.3394H26.1673V27.6925H18.8323V26.3401L25.1235 26.3394Z" fill="#034833"/>
</svg>
