<svg width="43" height="45" viewBox="0 0 43 45" fill="none" xmlns="http://www.w3.org/2000/svg">
<path d="M36.1602 8.96484C37.8477 8.96484 39.2539 7.59375 39.2539 5.87109C39.2539 4.14844 37.8477 2.8125 36.1602 2.8125C34.4727 2.8125 33.0664 4.18359 33.0664 5.90625C33.0664 7.59375 34.4375 8.96484 36.1602 8.96484ZM36.1602 4.04297C37.1797 4.04297 38.0234 4.88672 38.0234 5.90625C38.0234 6.92578 37.1797 7.76953 36.1602 7.76953C35.1406 7.76953 34.2969 6.92578 34.2969 5.90625C34.2969 4.88672 35.1055 4.04297 36.1602 4.04297Z" fill="white"/>
<path d="M39.8517 16.1016C39.2892 14.9063 38.6212 13.7461 37.8478 12.6914C39.5353 11.5664 42.0314 9.35156 42.0314 5.90625C42.0314 2.63672 39.3946 0.0351562 36.1603 0.0351562C32.9259 0.0351562 30.254 2.63672 30.254 5.90625V6.29297C29.797 6.08203 29.3399 5.87109 28.8829 5.66016C15.6642 0.351562 1.03916 9.94922 0.968852 24.5391C0.933696 35.7891 10.004 44.9297 21.254 44.9648C32.504 45 41.6446 35.9297 41.6798 24.6797C41.6798 24.6094 41.6798 24.5742 41.6798 24.5039C41.6798 21.6211 41.047 18.7383 39.8517 16.1016ZM36.1603 1.23047C38.7267 1.23047 40.8009 3.30469 40.836 5.90625C40.836 9.59766 37.1798 11.7773 36.1603 12.2695C35.1759 11.7422 31.4845 9.59766 31.4845 5.90625C31.4845 3.30469 33.5587 1.23047 36.1603 1.23047ZM35.879 13.5352C36.0548 13.6055 36.2306 13.6055 36.3712 13.5352C36.4064 13.5352 36.547 13.4648 36.7579 13.3242C37.3204 14.0977 37.8126 14.9063 38.2696 15.75H34.6134L32.1524 13.2891C32.0118 13.1484 31.8009 13.0781 31.5899 13.1133L24.3478 14.7305C24.0665 14.8008 23.8556 15.0469 23.8556 15.3281V16.8047C23.8556 17.1211 24.0665 17.3672 24.3829 17.4023L29.3751 18.1758L30.6056 20.5664C30.6759 20.707 30.8165 20.8477 30.9923 20.8828L34.1564 21.7617V23.5547L32.2579 25.5234C32.1524 25.6289 32.0821 25.8047 32.0821 25.9453V28.9336L28.6017 35.0156H26.6681V33.082C26.6681 32.9063 26.5978 32.7305 26.4571 32.625L23.7853 30.1992V27.3867C23.7853 27.1406 23.6095 26.8945 23.3985 26.8242L17.9142 24.8203V20.25L21.5001 16.3828C21.7462 16.1367 21.711 15.75 21.4649 15.5039L21.4298 15.4688L18.1603 12.9375L20.8321 9.14063H26.3165C26.4923 9.14063 26.6329 9.07031 26.7384 8.96484L28.7774 6.92578C29.3399 7.17188 29.9376 7.45313 30.5001 7.76953C31.6251 11.5664 35.7032 13.4297 35.879 13.5352ZM8.98448 9.94922L10.5314 13.1484L9.30088 13.7813C9.23057 13.8164 9.19541 13.8516 9.1251 13.8867L6.20713 16.875C6.03135 17.0508 5.9962 17.2969 6.06651 17.5078L6.48838 18.7031C6.03135 18.9844 5.57432 19.3711 5.22276 19.7578L2.72666 20.1797C3.64073 16.1719 5.85557 12.5859 8.98448 9.94922ZM9.58213 30.0234C8.59776 29.4961 4.90635 27.3516 4.90635 23.6602C4.94151 21.0938 7.05088 19.0195 9.61729 19.0547C12.1485 19.0898 14.2228 21.1289 14.2228 23.6602C14.2228 27.3516 10.5665 29.5313 9.58213 30.0234ZM2.23448 23.5195C2.26963 22.8164 2.33995 22.1484 2.44541 21.4453L4.23838 21.1289C3.88682 21.8672 3.67588 22.6758 3.67588 23.4844H2.23448V23.5195ZM9.30088 36.5625V39.4453C4.8712 35.8594 2.26963 30.4805 2.19932 24.75H3.78135C4.44932 29.0742 9.1251 31.1836 9.33604 31.2891C9.51182 31.3594 9.6876 31.3594 9.82823 31.2891C10.3204 31.043 10.7774 30.7969 11.2345 30.4805L11.8673 31.1133V32.8008L11.0939 33.9609C10.9181 34.207 10.9884 34.5586 11.1993 34.7695L11.3751 34.9453L9.54698 36.0352C9.40635 36.1406 9.30088 36.3164 9.30088 36.5625ZM21.3243 43.6992C17.4571 43.6992 13.6954 42.5391 10.5314 40.3594V36.9141L12.8165 35.543C13.0978 35.3672 13.2032 34.9805 13.0274 34.6992C12.9923 34.6289 12.9571 34.5938 12.8868 34.5586L12.4649 34.207L13.0274 33.3633C13.0978 33.2578 13.1329 33.1523 13.1329 33.0117V30.9023C13.1329 30.7266 13.0626 30.5859 12.9571 30.4805L12.2892 29.8125C13.836 28.582 15.5235 26.543 15.5235 23.7305C15.5235 20.4961 12.922 17.8594 9.65244 17.8594C8.94932 17.8594 8.28135 17.9648 7.61338 18.2109L7.36729 17.5078L9.9337 14.8711L11.6212 14.0273C11.9376 13.8867 12.0431 13.5 11.9024 13.2188L9.96885 9.24609C15.0314 5.51953 21.6056 4.5 27.547 6.53906L26.0704 7.94531H20.5157C20.3048 7.94531 20.129 8.05078 20.0235 8.19141L16.8243 12.7266C16.6485 13.0078 16.6837 13.3594 16.9649 13.5703L20.1642 16.0313L16.8595 19.582C16.754 19.6875 16.6837 19.8281 16.6837 20.0039V25.2422C16.6837 25.4883 16.8595 25.7344 17.0704 25.8047L22.5548 27.8086V30.4805C22.5548 30.6563 22.6251 30.832 22.7657 30.9375L25.4376 33.3633V35.6484C25.4376 36 25.7189 36.2461 26.0353 36.2461H28.9532C29.1642 36.2461 29.3751 36.1406 29.4806 35.9297L33.2423 29.3906C33.3126 29.2852 33.3126 29.1797 33.3126 29.0742V26.1563L35.211 24.2578C35.3165 24.1523 35.3868 23.9766 35.3868 23.8359V21.3398C35.3868 21.0586 35.211 20.8125 34.9298 20.7422L31.5548 19.793L30.3243 17.3672C30.2189 17.1914 30.0782 17.0859 29.8673 17.0508L25.086 16.3125V15.8203L31.5196 14.3789L33.9454 16.8047C34.0509 16.9102 34.2267 16.9805 34.3673 16.9805H38.8673C39.922 19.3711 40.4493 21.9375 40.4493 24.5742C40.4493 35.1211 31.8712 43.6641 21.3243 43.6992Z" fill="white"/>
<path d="M9.58203 20.5664C7.89453 20.5664 6.48828 21.9375 6.48828 23.6602C6.48828 25.3477 7.85938 26.7539 9.58203 26.7539C11.3047 26.7539 12.6758 25.3828 12.6758 23.6602C12.6406 21.9727 11.2695 20.5664 9.58203 20.5664ZM9.58203 25.5234C8.5625 25.5234 7.71875 24.6797 7.71875 23.6602C7.71875 22.6406 8.5625 21.7969 9.58203 21.7969C10.6016 21.7969 11.4453 22.6406 11.4453 23.6602C11.4453 24.6797 10.6016 25.5234 9.58203 25.5234Z" fill="white"/>
</svg>
