<svg width="45" height="46" viewBox="0 0 45 46" fill="none" xmlns="http://www.w3.org/2000/svg">
<path d="M6.67969 20.0586C6.67969 24.3125 10.125 27.8281 14.4492 27.8281C18.7383 27.8281 22.2187 24.3477 22.2187 20.0586C22.2187 15.8398 18.8086 12.2891 14.4492 12.2891C10.1953 12.2891 6.67969 15.7695 6.67969 20.0586ZM20.3555 22.8359H18.3867C18.5273 22.1328 18.6328 21.3945 18.6328 20.6562H20.9531C20.918 21.4297 20.707 22.168 20.3555 22.8359ZM7.94531 20.6562H10.2656C10.3008 21.3945 10.3711 22.0977 10.5117 22.8359H8.54297C8.19141 22.168 8.01562 21.4297 7.94531 20.6562ZM11.4961 20.6562H13.8516V22.8359H11.7773C11.6016 22.1328 11.4961 21.3945 11.4961 20.6562ZM13.8516 24.0664V26.4219C13.2187 26.1055 12.5859 25.2617 12.1289 24.0664H13.8516ZM15.082 26.457V24.1016H16.8047C16.3125 25.2617 15.7148 26.1055 15.082 26.457ZM15.082 22.8359V20.6562H17.4375C17.4023 21.3945 17.2969 22.1328 17.1562 22.8359H15.082ZM20.9883 19.4609H18.668C18.6328 18.7227 18.5625 18.0195 18.4219 17.2812H20.3906C20.707 17.9492 20.918 18.6875 20.9883 19.4609ZM17.4375 19.4609H15.082V17.2812H17.1562C17.2969 17.9844 17.4023 18.7227 17.4375 19.4609ZM15.082 16.0508V13.6953C15.7148 14.0117 16.3477 14.8555 16.8047 16.0508H15.082ZM13.8516 13.6602V16.0156H12.1289C12.5859 14.8555 13.1836 14.0117 13.8516 13.6602ZM13.8516 17.2812V19.4609H11.4961C11.5312 18.7227 11.6367 17.9844 11.7773 17.2812H13.8516ZM10.2656 19.4609H7.94531C8.01562 18.7227 8.22656 17.9844 8.54297 17.2812H10.5117C10.3711 17.9844 10.2656 18.7227 10.2656 19.4609ZM9.28125 24.0664H10.8281C11.0391 24.7344 11.3203 25.4023 11.707 26C10.7578 25.543 9.94922 24.9102 9.28125 24.0664ZM17.1914 26C17.5781 25.4023 17.8594 24.7695 18.0703 24.0664H19.6172C18.9844 24.9102 18.1406 25.543 17.1914 26ZM19.6172 16.0508H18.0703C17.8594 15.3828 17.5781 14.75 17.1914 14.1172C18.1406 14.5742 18.9844 15.207 19.6172 16.0508ZM11.707 14.1172C11.3203 14.7148 11.0391 15.3477 10.8281 16.0508H9.28125C9.94922 15.207 10.7578 14.5742 11.707 14.1172Z" fill="white"/>
<path d="M25.875 29.6211H3.05859C2.70703 29.6211 2.46094 29.9023 2.46094 30.2188V32.6094C2.46094 32.9609 2.74219 33.207 3.05859 33.207H25.875C26.2266 33.207 26.4727 32.9258 26.4727 32.6094V30.2188C26.4727 29.9023 26.1914 29.6211 25.875 29.6211ZM25.2422 32.0117H3.65625V30.8516H25.2422V32.0117Z" fill="white"/>
<path d="M21.0586 34.4023H7.875C7.52344 34.4023 7.27734 34.6836 7.27734 35V37.3906C7.27734 37.7422 7.55859 37.9883 7.875 37.9883H21.0586C21.4102 37.9883 21.6562 37.707 21.6562 37.3906V35C21.6562 34.6836 21.375 34.4023 21.0586 34.4023ZM20.4258 36.8281H8.47266V35.668H20.4258V36.8281Z" fill="white"/>
<path d="M30.4805 14.293L32.625 13.4492V14.5039L31.2891 16.1211C31.1836 16.2266 31.1484 16.3672 31.1484 16.5078V18.0195C31.1484 18.4766 31.6406 18.793 32.0625 18.5469L34.418 17.2461C35.3672 16.7187 35.9648 15.6992 35.9648 14.6094V6.875C35.9648 6.52344 35.6836 6.27734 35.3672 6.27734H34.418C33.4336 6.27734 32.5898 7.08594 32.5898 8.10547V10.0039L30.5859 11.2344C29.9883 11.5859 29.6367 12.2539 29.6367 12.957V13.7305C29.6367 14.1523 30.0937 14.4687 30.4805 14.293ZM31.2539 12.2891L33.5742 10.8477C33.75 10.7422 33.8555 10.5312 33.8555 10.3203V8.07031C33.8555 7.75391 34.1016 7.47266 34.4531 7.47266H34.7695V14.5742C34.7695 15.207 34.418 15.8047 33.8555 16.1211L32.4141 16.9297V16.6836L33.7148 15.1016C33.8203 14.9961 33.8555 14.8555 33.8555 14.7148V12.5352C33.8555 12.1133 33.4336 11.7969 33.0117 11.9727L30.9023 12.8164C30.9023 12.6055 31.043 12.3945 31.2539 12.2891Z" fill="white"/>
<path d="M44.7891 13.1689C31.3945 -0.225586 36.0351 4.41504 35.0156 3.39551C34.7695 3.14941 34.3828 3.14941 34.1367 3.39551L28.1602 9.40723C27.4219 8.35254 26.2266 7.75488 24.9609 7.75488H24.3984V3.85254C24.3984 3.46582 24.0469 3.18457 23.6602 3.25488L0.527344 7.75488C0.246094 7.8252 0.0351562 8.07129 0.0351562 8.35254V41.2236C0.0351562 41.5752 0.316406 41.8213 0.632812 41.8213H28.2305C28.582 41.8213 28.8281 41.54 28.8281 41.2236V29.9736L44.7539 14.0479C45.0351 13.8018 45.0351 13.415 44.7891 13.1689ZM28.7227 10.5674L34.5937 4.69629L41.7656 11.8682C41.0977 12.5361 30.3047 23.3291 28.8633 24.7705V11.6572C28.8633 11.2705 28.8281 10.9189 28.7227 10.5674ZM23.168 4.59082V7.71973H7.03125L23.168 4.59082ZM1.26562 40.5908V8.9502H24.9609C26.4375 8.9502 27.6328 10.1455 27.6328 11.6221V40.5557H1.26562V40.5908ZM28.8633 28.2158V26.5283L42.6445 12.7471L43.4883 13.5908L28.8633 28.2158Z" fill="white"/>
</svg>
