<svg width="45" height="46" viewBox="0 0 45 46" fill="none" xmlns="http://www.w3.org/2000/svg">
<path d="M44.3848 9.77344H11.7348C11.644 9.77338 11.5543 9.79344 11.4722 9.83216C11.3901 9.87088 11.3176 9.9273 11.2598 9.99738L9.88875 11.6624L8.51766 9.99738C8.45993 9.9273 8.3874 9.87088 8.30528 9.83216C8.22316 9.79344 8.13349 9.77338 8.0427 9.77344H0.615234C0.534411 9.77344 0.45438 9.78936 0.379713 9.8203C0.305047 9.85124 0.237208 9.89659 0.180074 9.95376C0.122939 10.0109 0.0776288 10.0788 0.0467311 10.1535C0.0158333 10.2282 -4.60843e-05 10.3082 1.00456e-07 10.389V34.6468C1.00456e-07 34.81 0.0648192 34.9665 0.180198 35.0819C0.295577 35.1973 0.452064 35.2621 0.615234 35.2621H8.04059C8.13138 35.2621 8.22105 35.2421 8.30317 35.2033C8.38529 35.1646 8.45782 35.1082 8.51555 35.0381L9.88664 33.3731L11.2577 35.0381C11.3155 35.1082 11.388 35.1646 11.4701 35.2033C11.5522 35.2421 11.6419 35.2621 11.7327 35.2621H44.3848C44.4656 35.2621 44.5456 35.2462 44.6203 35.2153C44.6949 35.1844 44.7628 35.1391 44.8199 35.082C44.877 35.0248 44.9224 34.957 44.9533 34.8823C44.9842 34.8077 45 34.7276 45 34.6468V10.389C45.0001 10.3082 44.9842 10.2281 44.9534 10.1534C44.9225 10.0787 44.8772 10.0108 44.82 9.95366C44.7629 9.89648 44.695 9.85113 44.6203 9.82021C44.5457 9.78928 44.4656 9.77339 44.3848 9.77344ZM1.23047 11.0039H7.7502L9.41273 13.0212C9.47242 13.088 9.54556 13.1415 9.62735 13.1781C9.70913 13.2147 9.79773 13.2336 9.88734 13.2336C9.97695 13.2336 10.0656 13.2147 10.1473 13.1781C10.2291 13.1415 10.3023 13.088 10.362 13.0212L12.0245 11.0039H43.7706V29.7714H1.23047V11.0039ZM43.7695 34.0312H12.0252L10.3627 32.014C10.303 31.9471 10.2298 31.8937 10.148 31.8571C10.0663 31.8204 9.97766 31.8015 9.88805 31.8015C9.79844 31.8015 9.70984 31.8204 9.62805 31.8571C9.54626 31.8937 9.47313 31.9471 9.41344 32.014L7.7509 34.0312H1.23047V31.0018H43.7695V34.0312Z" fill="white"/>
<path d="M20.4609 12.5863H13.0612C12.9705 12.5862 12.8809 12.6063 12.7988 12.645C12.7167 12.6837 12.6443 12.7401 12.5866 12.8102L9.8877 16.0847L7.18875 12.8099C7.13111 12.7398 7.05865 12.6834 6.97658 12.6446C6.89452 12.6059 6.80488 12.5859 6.71414 12.5859H3.42773C3.34688 12.5859 3.26682 12.6019 3.19213 12.6328C3.11744 12.6638 3.04959 12.7092 2.99245 12.7664C2.93531 12.8236 2.89001 12.8915 2.85913 12.9662C2.82825 13.0409 2.81241 13.121 2.8125 13.2019V27.5745C2.8125 27.7376 2.87732 27.8941 2.9927 28.0095C3.10808 28.1249 3.26456 28.1897 3.42773 28.1897H20.4609C20.6241 28.1897 20.7806 28.1249 20.896 28.0095C21.0114 27.8941 21.0762 27.7376 21.0762 27.5745V13.2019C21.0762 13.1211 21.0603 13.041 21.0294 12.9663C20.9985 12.8916 20.9532 12.8238 20.8961 12.7666C20.839 12.7094 20.7711 12.6641 20.6965 12.6332C20.6218 12.6022 20.5418 12.5863 20.4609 12.5863ZM19.8457 26.9592H4.04297V13.8168H6.42375L9.41203 17.4438C9.47172 17.5107 9.54485 17.5641 9.62664 17.6008C9.70843 17.6374 9.79703 17.6563 9.88664 17.6563C9.97625 17.6563 10.0648 17.6374 10.1466 17.6008C10.2284 17.5641 10.3016 17.5107 10.3612 17.4438L13.3495 13.8168H19.8464L19.8457 26.9592Z" fill="white"/>
<path d="M40.8447 13.5192C40.3333 13.0091 39.6405 12.7227 38.9181 12.7227C38.1958 12.7227 37.503 13.0091 36.9916 13.5192L34.435 16.0758L30.1133 15.0752C29.6047 14.9558 29.074 14.9687 28.5718 15.1126C28.0697 15.2565 27.6127 15.5266 27.2445 15.8972L26.2833 16.8583C26.2124 16.9291 26.1599 17.0162 26.1303 17.1119C26.1007 17.2077 26.095 17.3092 26.1136 17.4077C26.1322 17.5061 26.1746 17.5985 26.2371 17.6769C26.2996 17.7552 26.3803 17.8171 26.4721 17.8571L30.7742 19.7383L28.8515 21.6607L25.0898 22.0091C24.947 22.0217 24.8132 22.0839 24.7115 22.1849L22.8482 24.0481C22.7724 24.1239 22.7177 24.2183 22.6896 24.3217C22.6614 24.4252 22.6608 24.5342 22.6877 24.638C22.7147 24.7417 22.7683 24.8367 22.8433 24.9133C22.9182 24.99 23.0119 25.0458 23.1151 25.0751L27.678 26.3727C28.5061 26.608 29.382 26.618 30.2153 26.4017C31.0486 26.1854 31.809 25.7506 32.4181 25.1422L42.0073 15.553C42.0645 15.4959 42.1099 15.4281 42.1408 15.3535C42.1717 15.2789 42.1877 15.1989 42.1877 15.1181C42.1877 15.0373 42.1717 14.9573 42.1408 14.8827C42.1099 14.8081 42.0645 14.7403 42.0073 14.6832L40.8447 13.5192ZM31.548 24.2714C31.0941 24.7251 30.5272 25.0495 29.906 25.2108C29.2848 25.3722 28.6318 25.3648 28.0144 25.1893L24.4587 24.1786L25.4255 23.2118L29.1873 22.8634C29.3302 22.8503 29.4641 22.7875 29.5655 22.6858L32.2828 19.9686C32.3537 19.8978 32.4062 19.8107 32.4358 19.715C32.4654 19.6193 32.4711 19.5178 32.4525 19.4193C32.4339 19.3208 32.3915 19.2284 32.329 19.1501C32.2665 19.0717 32.1858 19.0099 32.094 18.9698L27.7912 17.0904L28.1146 16.7669C28.3357 16.5444 28.6102 16.3823 28.9118 16.2961C29.2134 16.21 29.532 16.2026 29.8373 16.2747L34.4885 17.3512C34.5902 17.3745 34.6961 17.3717 34.7965 17.343C34.8968 17.3143 34.9882 17.2606 35.0622 17.187L37.86 14.3893C38.1405 14.1096 38.5204 13.9526 38.9166 13.9526C39.3127 13.9526 39.6927 14.1096 39.9732 14.3893L40.7009 15.1174L31.548 24.2714Z" fill="white"/>
<path d="M17.6484 24.1484H6.24023C6.07706 24.1484 5.92058 24.2133 5.8052 24.3286C5.68982 24.444 5.625 24.6005 5.625 24.7637C5.625 24.9268 5.68982 25.0833 5.8052 25.1987C5.92058 25.3141 6.07706 25.3789 6.24023 25.3789H17.6484C17.8116 25.3789 17.9681 25.3141 18.0835 25.1987C18.1988 25.0833 18.2637 24.9268 18.2637 24.7637C18.2637 24.6005 18.1988 24.444 18.0835 24.3286C17.9681 24.2133 17.8116 24.1484 17.6484 24.1484Z" fill="white"/>
<path d="M17.6484 21.8945H6.24023C6.07706 21.8945 5.92058 21.9593 5.8052 22.0747C5.68982 22.1901 5.625 22.3466 5.625 22.5098C5.625 22.6729 5.68982 22.8294 5.8052 22.9448C5.92058 23.0602 6.07706 23.125 6.24023 23.125H17.6484C17.8116 23.125 17.9681 23.0602 18.0835 22.9448C18.1988 22.8294 18.2637 22.6729 18.2637 22.5098C18.2637 22.3466 18.1988 22.1901 18.0835 22.0747C17.9681 21.9593 17.8116 21.8945 17.6484 21.8945Z" fill="white"/>
<path d="M17.6484 19.6406H6.24023C6.07706 19.6406 5.92058 19.7054 5.8052 19.8208C5.68982 19.9362 5.625 20.0927 5.625 20.2559C5.625 20.419 5.68982 20.5755 5.8052 20.6909C5.92058 20.8063 6.07706 20.8711 6.24023 20.8711H17.6484C17.8116 20.8711 17.9681 20.8063 18.0835 20.6909C18.1988 20.5755 18.2637 20.419 18.2637 20.2559C18.2637 20.0927 18.1988 19.9362 18.0835 19.8208C17.9681 19.7054 17.8116 19.6406 17.6484 19.6406Z" fill="white"/>
<path d="M12.7334 18.0059C12.7334 18.0867 12.7492 18.1667 12.7801 18.2414C12.811 18.316 12.8564 18.3839 12.9135 18.441C12.9706 18.4981 13.0385 18.5435 13.1131 18.5744C13.1878 18.6053 13.2678 18.6211 13.3486 18.6211H17.6486C17.8118 18.6211 17.9683 18.5563 18.0836 18.4409C18.199 18.3255 18.2638 18.169 18.2638 18.0059C18.2638 17.8427 18.199 17.6862 18.0836 17.5708C17.9683 17.4554 17.8118 17.3906 17.6486 17.3906H13.3486C13.2678 17.3906 13.1878 17.4065 13.1131 17.4374C13.0385 17.4683 12.9706 17.5136 12.9135 17.5707C12.8564 17.6279 12.811 17.6957 12.7801 17.7704C12.7492 17.845 12.7334 17.9251 12.7334 18.0059Z" fill="white"/>
</svg>
