<svg width="16" height="15" viewBox="0 0 16 15" fill="none" xmlns="http://www.w3.org/2000/svg">
<path d="M14.9727 1.94531L13.2227 13.293C13.1953 13.5664 13.0312 13.8125 12.7852 13.9492C12.6484 14.0039 12.5117 14.0586 12.3477 14.0586C12.2383 14.0586 12.1289 14.0312 12.0195 13.9766L8.68359 12.582L7.28906 14.6602C7.17969 14.8516 6.98828 14.9336 6.79688 14.9336C6.49609 14.9336 6.25 14.6875 6.25 14.3867V11.7617C6.25 11.543 6.30469 11.3516 6.41406 11.2148L12.375 3.55859L4.33594 10.8047L1.51953 9.62891C1.21875 9.49219 1 9.21875 1 8.86328C0.972656 8.48047 1.13672 8.20703 1.4375 8.04297L13.6875 1.07031C13.9609 0.90625 14.3438 0.90625 14.6172 1.09766C14.8906 1.28906 15.0273 1.61719 14.9727 1.94531Z" fill="#034833"/>
</svg>
