<svg width="15" height="15" viewBox="0 0 15 15" fill="none" xmlns="http://www.w3.org/2000/svg">
<path d="M13.9727 11.5156L13.3164 14.2773C13.2344 14.6875 12.9062 14.9609 12.4961 14.9609C5.60547 14.9336 0 9.32812 0 2.4375C0 2.02734 0.246094 1.69922 0.65625 1.61719L3.41797 0.960938C3.80078 0.878906 4.21094 1.09766 4.375 1.45312L5.66016 4.43359C5.79688 4.78906 5.71484 5.19922 5.41406 5.41797L3.9375 6.62109C4.86719 8.50781 6.39844 10.0391 8.3125 10.9688L9.51562 9.49219C9.73438 9.21875 10.1445 9.10938 10.5 9.24609L13.4805 10.5312C13.8359 10.7227 14.0547 11.1328 13.9727 11.5156Z" fill="#034833"/>
</svg>
