<svg width="14" height="12" viewBox="0 0 14 12" fill="none" xmlns="http://www.w3.org/2000/svg">
<path d="M12.6875 0.683594C13.3984 0.683594 14 1.28516 14 1.99609C14 2.43359 13.7812 2.81641 13.4531 3.0625L7.51953 7.51953C7.19141 7.76562 6.78125 7.76562 6.45312 7.51953L0.519531 3.0625C0.191406 2.81641 0 2.43359 0 1.99609C0 1.28516 0.574219 0.683594 1.3125 0.683594H12.6875ZM5.93359 8.23047C6.5625 8.69531 7.41016 8.69531 8.03906 8.23047L14 3.74609V9.43359C14 10.418 13.207 11.1836 12.25 11.1836H1.75C0.765625 11.1836 0 10.418 0 9.43359V3.74609L5.93359 8.23047Z" fill="#034833"/>
</svg>
