<svg width="11" height="16" viewBox="0 0 11 16" fill="none" xmlns="http://www.w3.org/2000/svg">
<path d="M4.59375 14.6055C3.17188 12.8281 0 8.58984 0 6.18359C0 3.28516 2.32422 0.933594 5.25 0.933594C8.14844 0.933594 10.5 3.28516 10.5 6.18359C10.5 8.58984 7.30078 12.8281 5.87891 14.6055C5.55078 15.0156 4.92188 15.0156 4.59375 14.6055ZM5.25 7.93359C6.20703 7.93359 7 7.16797 7 6.18359C7 5.22656 6.20703 4.43359 5.25 4.43359C4.26562 4.43359 3.5 5.22656 3.5 6.18359C3.5 7.16797 4.26562 7.93359 5.25 7.93359Z" fill="#034833"/>
</svg>
