<svg width="30" height="30" viewBox="0 0 30 30" fill="none" xmlns="http://www.w3.org/2000/svg">
<path fill-rule="evenodd" clip-rule="evenodd" d="M12.7169 1.04412L13.515 3.14617C13.539 3.20933 13.5949 3.24994 13.6624 3.25322L15.9082 3.36267C16.0609 3.37011 16.1234 3.56254 16.0043 3.65834L14.2517 5.06693C14.199 5.10924 14.1777 5.17492 14.1954 5.24013L14.7853 7.4098C14.8255 7.55734 14.6618 7.67629 14.5338 7.5925L12.6526 6.36103C12.596 6.324 12.527 6.324 12.4705 6.36103L10.5893 7.5925C10.4613 7.67629 10.2976 7.55734 10.3378 7.4098L10.9276 5.24008C10.9453 5.17486 10.9241 5.10918 10.8714 5.06687L9.11884 3.65828C8.99966 3.56248 9.06218 3.37006 9.21494 3.36261L11.4607 3.25316C11.5282 3.24988 11.5841 3.20928 11.6081 3.14611L12.4062 1.04406C12.46 0.90197 12.663 0.90197 12.7169 1.04412ZM23.5752 18.8469C26.3961 18.8469 28.683 21.1337 28.683 23.9547C28.683 26.7756 26.3961 29.0625 23.5752 29.0625C20.7543 29.0625 18.4674 26.7756 18.4674 23.9547C18.4674 21.1337 20.7543 18.8469 23.5752 18.8469ZM22.9043 24.4052L21.763 23.2639C21.4672 22.9681 20.9874 22.9681 20.6916 23.2639C20.3958 23.5597 20.3958 24.0395 20.6916 24.3353L22.3702 26.014C22.666 26.3097 23.1458 26.3097 23.4416 26.014C24.4534 25.0022 25.4538 23.9789 26.4609 22.9625C26.7546 22.6661 26.7536 22.1878 26.4576 21.8934C26.1615 21.599 25.6819 21.5998 25.3879 21.8968L22.9043 24.4052ZM4.15542 26.3209L18.0107 26.3208C17.7013 25.5941 17.53 24.7944 17.53 23.9547C17.53 22.6776 17.9264 21.4932 18.6023 20.5172C16.9972 19.0862 14.8812 18.2163 12.5616 18.2163C8.09661 18.2163 4.38452 21.4387 3.62316 25.6846C3.56327 26.0181 3.81658 26.3209 4.15542 26.3209ZM12.5616 8.44679C15.0976 8.44679 17.1534 10.5026 17.1534 13.0386C17.1534 15.5745 15.0976 17.6303 12.5616 17.6303C10.0257 17.6303 7.96988 15.5745 7.96988 13.0386C7.96982 10.5026 10.0256 8.44679 12.5616 8.44679ZM20.453 4.01951C20.399 3.87736 20.196 3.87736 20.1421 4.01951L19.344 6.12156C19.32 6.18478 19.2641 6.22533 19.1966 6.22861L16.9508 6.33806C16.7981 6.34551 16.7356 6.53793 16.8547 6.63373L18.6073 8.04232C18.66 8.08468 18.6813 8.15031 18.6635 8.21553L18.0737 10.3853C18.0335 10.5328 18.1972 10.6517 18.3251 10.5679L20.2064 9.33648C20.2629 9.29945 20.3319 9.29945 20.3885 9.33648L22.2697 10.5679C22.3977 10.6517 22.5614 10.5328 22.5212 10.3853L21.9313 8.21558C21.9135 8.15037 21.9349 8.08474 21.9876 8.04238L23.7401 6.63379C23.8593 6.53799 23.7968 6.34556 23.644 6.33812L21.3982 6.22867C21.3307 6.22539 21.2749 6.18478 21.2509 6.12162L20.453 4.01951ZM4.98083 4.01951C4.92687 3.87736 4.7239 3.87736 4.66999 4.01951L3.87189 6.12156C3.84792 6.18478 3.79202 6.22533 3.72452 6.22861L1.47874 6.33806C1.32599 6.34551 1.26347 6.53793 1.38265 6.63373L3.13519 8.04232C3.18786 8.08468 3.20919 8.15031 3.19144 8.21553L2.60158 10.3853C2.56144 10.5328 2.72509 10.6517 2.85306 10.5679L4.73427 9.33648C4.79081 9.29945 4.85984 9.29945 4.91638 9.33648L6.79765 10.5679C6.92562 10.6517 7.08927 10.5328 7.04913 10.3853L6.45927 8.21558C6.44152 8.15037 6.46284 8.08474 6.51552 8.04238L8.26806 6.63379C8.38724 6.53799 8.32472 6.34556 8.17197 6.33812L5.92618 6.22867C5.85869 6.22539 5.80285 6.18478 5.77882 6.12162L4.98083 4.01951Z" fill="white"/>
</svg>
