<svg width="30" height="24" viewBox="0 0 30 24" fill="none" xmlns="http://www.w3.org/2000/svg">
<mask id="path-1-outside-1_3743_11" maskUnits="userSpaceOnUse" x="-1" y="-1.03906" width="32" height="26" fill="black">
<rect fill="white" x="-1" y="-1.03906" width="32" height="26"/>
<path d="M9.77 23.3209C7.99 23.3209 6.43 22.8409 5.09 21.8809C3.75 20.9009 2.7 19.5509 1.94 17.8309C1.2 16.0909 0.83 14.0709 0.83 11.7709C0.83 9.45094 1.2 7.43094 1.94 5.71094C2.7 3.99094 3.74 2.65094 5.06 1.69094C6.4 0.730936 7.96 0.250937 9.74 0.250937C11.52 0.250937 13.07 0.730936 14.39 1.69094C15.73 2.65094 16.77 4.00094 17.51 5.74094C18.27 7.46094 18.65 9.47094 18.65 11.7709C18.65 14.0709 18.28 16.0909 17.54 17.8309C16.8 19.5509 15.76 20.9009 14.42 21.8809C13.1 22.8409 11.55 23.3209 9.77 23.3209ZM9.77 20.0809C10.87 20.0809 11.82 19.7409 12.62 19.0609C13.42 18.3809 14.04 17.4209 14.48 16.1809C14.92 14.9409 15.14 13.4709 15.14 11.7709C15.14 10.0709 14.92 8.60094 14.48 7.36094C14.04 6.12094 13.42 5.16094 12.62 4.48094C11.82 3.80094 10.86 3.46094 9.74 3.46094C8.64 3.46094 7.69 3.80094 6.89 4.48094C6.09 5.16094 5.47 6.12094 5.03 7.36094C4.59 8.60094 4.37 10.0709 4.37 11.7709C4.37 13.4509 4.59 14.9209 5.03 16.1809C5.47 17.4209 6.09 18.3809 6.89 19.0609C7.71 19.7409 8.67 20.0809 9.77 20.0809ZM25.7546 22.9609V3.61094H21.4646V0.610936H29.2646V22.9609H25.7546Z"/>
</mask>
<path d="M5.09 21.8809L4.49965 22.6881L4.50762 22.6938L5.09 21.8809ZM1.94 17.8309L1.01967 18.2223L1.02531 18.2351L1.94 17.8309ZM1.94 5.71094L1.02527 5.30675L1.02141 5.31573L1.94 5.71094ZM5.06 1.69094L4.4776 0.878002L4.47183 0.8822L5.06 1.69094ZM14.39 1.69094L13.8018 2.49969L13.8076 2.50385L14.39 1.69094ZM17.51 5.74094L16.5897 6.13234L16.5953 6.1451L17.51 5.74094ZM17.54 17.8309L18.4586 18.2261L18.4602 18.2223L17.54 17.8309ZM14.42 21.8809L15.0082 22.6897L15.0103 22.6881L14.42 21.8809ZM12.62 19.0609L11.9724 18.299L12.62 19.0609ZM14.48 7.36094L15.4224 7.02653L14.48 7.36094ZM12.62 4.48094L13.2676 3.719L13.2676 3.719L12.62 4.48094ZM6.89 4.48094L6.24235 3.719L6.24235 3.719L6.89 4.48094ZM5.03 7.36094L4.08757 7.02653L5.03 7.36094ZM5.03 16.1809L4.0859 16.5106L4.08757 16.5153L5.03 16.1809ZM6.89 19.0609L6.2423 19.8229L6.25166 19.8307L6.89 19.0609ZM9.77 22.3209C8.1813 22.3209 6.8288 21.8965 5.67239 21.068L4.50762 22.6938C6.0312 23.7854 7.7987 24.3209 9.77 24.3209V22.3209ZM5.68032 21.0738C4.4999 20.2105 3.55337 19.008 2.85469 17.4268L1.02531 18.2351C1.84663 20.0939 3.0001 21.5914 4.49968 22.6881L5.68032 21.0738ZM2.86024 17.4396C2.18295 15.847 1.83 13.9648 1.83 11.7709H-0.17C-0.17 14.177 0.217051 16.3348 1.01976 18.2223L2.86024 17.4396ZM1.83 11.7709C1.83 9.55531 2.1835 7.67528 2.85859 6.10614L1.02141 5.31573C0.216503 7.18659 -0.17 9.34656 -0.17 11.7709H1.83ZM2.85469 6.1151C3.55441 4.53151 4.49127 3.34106 5.64817 2.49967L4.47183 0.8822C2.98873 1.96082 1.84559 3.45036 1.02531 5.30677L2.85469 6.1151ZM5.64239 2.50385C6.7988 1.67538 8.15131 1.25094 9.74 1.25094V-0.749063C7.7687 -0.749063 6.0012 -0.213503 4.47762 0.878023L5.64239 2.50385ZM9.74 1.25094C11.3288 1.25094 12.6684 1.67534 13.8018 2.49967L14.9782 0.8822C13.4716 -0.21347 11.7112 -0.749063 9.74 -0.749063V1.25094ZM13.8076 2.50385C14.9776 3.34203 15.9108 4.53583 16.5898 6.1323L18.4302 5.34957C17.6292 3.46604 16.4824 1.95985 14.9724 0.878023L13.8076 2.50385ZM16.5953 6.1451C17.288 7.71271 17.65 9.57981 17.65 11.7709H19.65C19.65 9.36206 19.252 7.20917 18.4247 5.33677L16.5953 6.1451ZM17.65 11.7709C17.65 13.9648 17.2971 15.847 16.6198 17.4396L18.4602 18.2223C19.2629 16.3348 19.65 14.177 19.65 11.7709H17.65ZM16.6214 17.4357C15.9428 19.013 15.0077 20.2123 13.8297 21.0738L15.0103 22.6881C16.5123 21.5896 17.6572 20.0889 18.4586 18.2261L16.6214 17.4357ZM13.8318 21.0722C12.6984 21.8965 11.3588 22.3209 9.77 22.3209V24.3209C11.7412 24.3209 13.5016 23.7853 15.0082 22.6897L13.8318 21.0722ZM9.77 21.0809C11.095 21.0809 12.2777 20.6643 13.2676 19.8229L11.9724 18.299C11.3623 18.8175 10.645 19.0809 9.77 19.0809V21.0809ZM13.2676 19.8229C14.2318 19.0033 14.9383 17.8798 15.4224 16.5153L13.5376 15.8465C13.1417 16.962 12.6082 17.7585 11.9724 18.299L13.2676 19.8229ZM15.4224 16.5153C15.9098 15.1418 16.14 13.5533 16.14 11.7709H14.14C14.14 13.3886 13.9302 14.7401 13.5376 15.8465L15.4224 16.5153ZM16.14 11.7709C16.14 9.98856 15.9098 8.40008 15.4224 7.02653L13.5376 7.69535C13.9302 8.80179 14.14 10.1533 14.14 11.7709H16.14ZM15.4224 7.02653C14.9383 5.66204 14.2318 4.53855 13.2676 3.719L11.9724 5.24288C12.6082 5.78333 13.1417 6.57983 13.5376 7.69535L15.4224 7.02653ZM13.2676 3.719C12.2742 2.87458 11.0802 2.46094 9.74 2.46094V4.46094C10.6398 4.46094 11.3658 4.7273 11.9724 5.24288L13.2676 3.719ZM9.74 2.46094C8.41501 2.46094 7.23231 2.87754 6.24235 3.719L7.53765 5.24288C8.14769 4.72434 8.86499 4.46094 9.74 4.46094V2.46094ZM6.24235 3.719C5.27818 4.53855 4.57174 5.66204 4.08757 7.02653L5.97243 7.69535C6.36826 6.57983 6.90182 5.78333 7.53765 5.24288L6.24235 3.719ZM4.08757 7.02653C3.60018 8.40008 3.37 9.98856 3.37 11.7709H5.37C5.37 10.1533 5.57982 8.80179 5.97243 7.69535L4.08757 7.02653ZM3.37 11.7709C3.37 13.5354 3.60074 15.1213 4.08591 16.5106L5.97409 15.8513C5.57926 14.7206 5.37 13.3665 5.37 11.7709H3.37ZM4.08757 16.5153C4.57174 17.8798 5.27818 19.0033 6.24235 19.8229L7.53765 18.299C6.90182 17.7585 6.36826 16.962 5.97243 15.8465L4.08757 16.5153ZM6.25166 19.8307C7.25737 20.6647 8.44516 21.0809 9.77 21.0809V19.0809C8.89485 19.0809 8.16264 18.8172 7.52834 18.2912L6.25166 19.8307ZM25.7546 22.9609H24.7546V23.9609H25.7546V22.9609ZM25.7546 3.61094H26.7546V2.61094H25.7546V3.61094ZM21.4646 3.61094H20.4646V4.61094H21.4646V3.61094ZM21.4646 0.610936V-0.389064H20.4646V0.610936H21.4646ZM29.2646 0.610936H30.2646V-0.389064H29.2646V0.610936ZM29.2646 22.9609V23.9609H30.2646V22.9609H29.2646ZM26.7546 22.9609V3.61094H24.7546V22.9609H26.7546ZM25.7546 2.61094H21.4646V4.61094H25.7546V2.61094ZM22.4646 3.61094V0.610936H20.4646V3.61094H22.4646ZM21.4646 1.61094H29.2646V-0.389064H21.4646V1.61094ZM28.2646 0.610936V22.9609H30.2646V0.610936H28.2646ZM29.2646 21.9609H25.7546V23.9609H29.2646V21.9609Z" fill="white" mask="url(#path-1-outside-1_3743_11)"/>
</svg>
