<svg width="37" height="24" viewBox="0 0 37 24" fill="none" xmlns="http://www.w3.org/2000/svg">
<mask id="path-1-outside-1_3732_1222" maskUnits="userSpaceOnUse" x="-1" y="-1.03906" width="39" height="26" fill="black">
<rect fill="white" x="-1" y="-1.03906" width="39" height="26"/>
<path d="M9.77 23.3209C7.99 23.3209 6.43 22.8409 5.09 21.8809C3.75 20.9009 2.7 19.5509 1.94 17.8309C1.2 16.0909 0.83 14.0709 0.83 11.7709C0.83 9.45094 1.2 7.43094 1.94 5.71094C2.7 3.99094 3.74 2.65094 5.06 1.69094C6.4 0.730936 7.96 0.250937 9.74 0.250937C11.52 0.250937 13.07 0.730936 14.39 1.69094C15.73 2.65094 16.77 4.00094 17.51 5.74094C18.27 7.46094 18.65 9.47094 18.65 11.7709C18.65 14.0709 18.28 16.0909 17.54 17.8309C16.8 19.5509 15.76 20.9009 14.42 21.8809C13.1 22.8409 11.55 23.3209 9.77 23.3209ZM9.77 20.0809C10.87 20.0809 11.82 19.7409 12.62 19.0609C13.42 18.3809 14.04 17.4209 14.48 16.1809C14.92 14.9409 15.14 13.4709 15.14 11.7709C15.14 10.0709 14.92 8.60094 14.48 7.36094C14.04 6.12094 13.42 5.16094 12.62 4.48094C11.82 3.80094 10.86 3.46094 9.74 3.46094C8.64 3.46094 7.69 3.80094 6.89 4.48094C6.09 5.16094 5.47 6.12094 5.03 7.36094C4.59 8.60094 4.37 10.0709 4.37 11.7709C4.37 13.4509 4.59 14.9209 5.03 16.1809C5.47 17.4209 6.09 18.3809 6.89 19.0609C7.71 19.7409 8.67 20.0809 9.77 20.0809ZM21.9746 22.9609V20.4109L28.0946 13.8709C29.2946 12.5909 30.2346 11.5609 30.9146 10.7809C31.6146 9.98094 32.1146 9.28094 32.4146 8.68094C32.7346 8.08094 32.8946 7.45094 32.8946 6.79094C32.8946 5.71094 32.5646 4.88094 31.9046 4.30094C31.2446 3.70094 30.3946 3.40094 29.3546 3.40094C28.2746 3.40094 27.3446 3.71094 26.5646 4.33094C25.7846 4.93094 25.2446 5.81094 24.9446 6.97094L21.8246 6.07094C22.0646 4.89094 22.5446 3.87094 23.2646 3.01094C23.9846 2.13094 24.8646 1.45094 25.9046 0.970936C26.9646 0.490937 28.1046 0.250937 29.3246 0.250937C30.7446 0.250937 31.9846 0.520937 33.0446 1.06094C34.1046 1.58094 34.9246 2.31094 35.5046 3.25094C36.1046 4.19094 36.4046 5.28094 36.4046 6.52094C36.4046 7.34094 36.2446 8.14094 35.9246 8.92094C35.6246 9.68094 35.1546 10.4909 34.5146 11.3509C33.8746 12.1909 33.0546 13.1409 32.0546 14.2009L26.6546 19.9609H36.8246V22.9609H21.9746Z"/>
</mask>
<path d="M5.09 21.8809L4.49965 22.6881L4.50762 22.6938L5.09 21.8809ZM1.94 17.8309L1.01967 18.2223L1.02531 18.2351L1.94 17.8309ZM1.94 5.71094L1.02527 5.30675L1.02141 5.31573L1.94 5.71094ZM5.06 1.69094L4.4776 0.878002L4.47183 0.8822L5.06 1.69094ZM14.39 1.69094L13.8018 2.49969L13.8076 2.50385L14.39 1.69094ZM17.51 5.74094L16.5897 6.13234L16.5953 6.1451L17.51 5.74094ZM17.54 17.8309L18.4586 18.2261L18.4602 18.2223L17.54 17.8309ZM14.42 21.8809L15.0082 22.6897L15.0103 22.6881L14.42 21.8809ZM12.62 19.0609L11.9724 18.299L12.62 19.0609ZM14.48 7.36094L15.4224 7.02653L14.48 7.36094ZM12.62 4.48094L13.2676 3.719L13.2676 3.719L12.62 4.48094ZM6.89 4.48094L6.24235 3.719L6.24235 3.719L6.89 4.48094ZM5.03 7.36094L4.08757 7.02653L5.03 7.36094ZM5.03 16.1809L4.0859 16.5106L4.08757 16.5153L5.03 16.1809ZM6.89 19.0609L6.2423 19.8229L6.25166 19.8307L6.89 19.0609ZM9.77 22.3209C8.1813 22.3209 6.8288 21.8965 5.67239 21.068L4.50762 22.6938C6.0312 23.7854 7.7987 24.3209 9.77 24.3209V22.3209ZM5.68032 21.0738C4.4999 20.2105 3.55337 19.008 2.85469 17.4268L1.02531 18.2351C1.84663 20.0939 3.0001 21.5914 4.49968 22.6881L5.68032 21.0738ZM2.86024 17.4396C2.18295 15.847 1.83 13.9648 1.83 11.7709H-0.17C-0.17 14.177 0.217051 16.3348 1.01976 18.2223L2.86024 17.4396ZM1.83 11.7709C1.83 9.55531 2.1835 7.67528 2.85859 6.10614L1.02141 5.31573C0.216503 7.18659 -0.17 9.34656 -0.17 11.7709H1.83ZM2.85469 6.1151C3.55441 4.53151 4.49127 3.34106 5.64817 2.49967L4.47183 0.8822C2.98873 1.96082 1.84559 3.45036 1.02531 5.30677L2.85469 6.1151ZM5.64239 2.50385C6.7988 1.67538 8.15131 1.25094 9.74 1.25094V-0.749063C7.7687 -0.749063 6.0012 -0.213503 4.47762 0.878023L5.64239 2.50385ZM9.74 1.25094C11.3288 1.25094 12.6684 1.67534 13.8018 2.49967L14.9782 0.8822C13.4716 -0.21347 11.7112 -0.749063 9.74 -0.749063V1.25094ZM13.8076 2.50385C14.9776 3.34203 15.9108 4.53583 16.5898 6.1323L18.4302 5.34957C17.6292 3.46604 16.4824 1.95985 14.9724 0.878023L13.8076 2.50385ZM16.5953 6.1451C17.288 7.71271 17.65 9.57981 17.65 11.7709H19.65C19.65 9.36206 19.252 7.20917 18.4247 5.33677L16.5953 6.1451ZM17.65 11.7709C17.65 13.9648 17.2971 15.847 16.6198 17.4396L18.4602 18.2223C19.2629 16.3348 19.65 14.177 19.65 11.7709H17.65ZM16.6214 17.4357C15.9428 19.013 15.0077 20.2123 13.8297 21.0738L15.0103 22.6881C16.5123 21.5896 17.6572 20.0889 18.4586 18.2261L16.6214 17.4357ZM13.8318 21.0722C12.6984 21.8965 11.3588 22.3209 9.77 22.3209V24.3209C11.7412 24.3209 13.5016 23.7853 15.0082 22.6897L13.8318 21.0722ZM9.77 21.0809C11.095 21.0809 12.2777 20.6643 13.2676 19.8229L11.9724 18.299C11.3623 18.8175 10.645 19.0809 9.77 19.0809V21.0809ZM13.2676 19.8229C14.2318 19.0033 14.9383 17.8798 15.4224 16.5153L13.5376 15.8465C13.1417 16.962 12.6082 17.7585 11.9724 18.299L13.2676 19.8229ZM15.4224 16.5153C15.9098 15.1418 16.14 13.5533 16.14 11.7709H14.14C14.14 13.3886 13.9302 14.7401 13.5376 15.8465L15.4224 16.5153ZM16.14 11.7709C16.14 9.98856 15.9098 8.40008 15.4224 7.02653L13.5376 7.69535C13.9302 8.80179 14.14 10.1533 14.14 11.7709H16.14ZM15.4224 7.02653C14.9383 5.66204 14.2318 4.53855 13.2676 3.719L11.9724 5.24288C12.6082 5.78333 13.1417 6.57983 13.5376 7.69535L15.4224 7.02653ZM13.2676 3.719C12.2742 2.87458 11.0802 2.46094 9.74 2.46094V4.46094C10.6398 4.46094 11.3658 4.7273 11.9724 5.24288L13.2676 3.719ZM9.74 2.46094C8.41501 2.46094 7.23231 2.87754 6.24235 3.719L7.53765 5.24288C8.14769 4.72434 8.86499 4.46094 9.74 4.46094V2.46094ZM6.24235 3.719C5.27818 4.53855 4.57174 5.66204 4.08757 7.02653L5.97243 7.69535C6.36826 6.57983 6.90182 5.78333 7.53765 5.24288L6.24235 3.719ZM4.08757 7.02653C3.60018 8.40008 3.37 9.98856 3.37 11.7709H5.37C5.37 10.1533 5.57982 8.80179 5.97243 7.69535L4.08757 7.02653ZM3.37 11.7709C3.37 13.5354 3.60074 15.1213 4.08591 16.5106L5.97409 15.8513C5.57926 14.7206 5.37 13.3665 5.37 11.7709H3.37ZM4.08757 16.5153C4.57174 17.8798 5.27818 19.0033 6.24235 19.8229L7.53765 18.299C6.90182 17.7585 6.36826 16.962 5.97243 15.8465L4.08757 16.5153ZM6.25166 19.8307C7.25737 20.6647 8.44516 21.0809 9.77 21.0809V19.0809C8.89485 19.0809 8.16264 18.8172 7.52834 18.2912L6.25166 19.8307ZM21.9746 22.9609H20.9746V23.9609H21.9746V22.9609ZM21.9746 20.4109L21.2444 19.7277L20.9746 20.016V20.4109H21.9746ZM28.0946 13.8709L27.3651 13.187L27.3644 13.1877L28.0946 13.8709ZM30.9146 10.7809L30.162 10.1224L30.1608 10.1238L30.9146 10.7809ZM32.4146 8.68094L31.5323 8.21035L31.5261 8.22196L31.5202 8.23372L32.4146 8.68094ZM31.9046 4.30094L31.2319 5.04088L31.2382 5.04654L31.2445 5.0521L31.9046 4.30094ZM26.5646 4.33094L27.1743 5.12356L27.1806 5.11871L27.1869 5.11376L26.5646 4.33094ZM24.9446 6.97094L24.6674 7.93176L25.6553 8.21672L25.9128 7.22132L24.9446 6.97094ZM21.8246 6.07094L20.8447 5.87163L20.6607 6.77598L21.5474 7.03176L21.8246 6.07094ZM23.2646 3.01094L24.0314 3.65292L24.0386 3.64417L23.2646 3.01094ZM25.9046 0.970936L25.4921 0.0599585L25.4856 0.0629768L25.9046 0.970936ZM33.0446 1.06094L32.5907 1.95198L32.5974 1.9554L32.6042 1.95873L33.0446 1.06094ZM35.5046 3.25094L34.6536 3.77604L34.6576 3.78254L34.6617 3.78897L35.5046 3.25094ZM35.9246 8.92094L34.9994 8.54135L34.9945 8.55377L35.9246 8.92094ZM34.5146 11.3509L35.3101 11.957L35.3168 11.9479L34.5146 11.3509ZM32.0546 14.2009L31.3272 13.5147L31.3251 13.517L32.0546 14.2009ZM26.6546 19.9609L25.9251 19.277L24.3464 20.9609H26.6546V19.9609ZM36.8246 19.9609H37.8246V18.9609H36.8246V19.9609ZM36.8246 22.9609V23.9609H37.8246V22.9609H36.8246ZM22.9746 22.9609V20.4109H20.9746V22.9609H22.9746ZM22.7048 21.0942L28.8248 14.5542L27.3644 13.1877L21.2444 19.7277L22.7048 21.0942ZM28.8241 14.5549C30.0276 13.2712 30.9769 12.2312 31.6684 11.4381L30.1608 10.1238C29.4923 10.8906 28.5616 11.9107 27.3651 13.187L28.8241 14.5549ZM31.6672 11.4394C32.3947 10.608 32.9555 9.83527 33.309 9.12815L31.5202 8.23372C31.2737 8.72661 30.8345 9.35387 30.162 10.1224L31.6672 11.4394ZM33.297 9.15153C33.6918 8.41125 33.8946 7.62017 33.8946 6.79094H31.8946C31.8946 7.28171 31.7774 7.75062 31.5323 8.21035L33.297 9.15153ZM33.8946 6.79094C33.8946 5.49482 33.4892 4.36222 32.5647 3.54977L31.2445 5.0521C31.64 5.39966 31.8946 5.92705 31.8946 6.79094H33.8946ZM32.5773 3.561C31.7031 2.76628 30.5994 2.40094 29.3546 2.40094V4.40094C30.1898 4.40094 30.7861 4.6356 31.2319 5.04088L32.5773 3.561ZM29.3546 2.40094C28.0689 2.40094 26.9145 2.77539 25.9424 3.54811L27.1869 5.11376C27.7747 4.64648 28.4804 4.40094 29.3546 4.40094V2.40094ZM25.9549 3.53831C24.9626 4.30165 24.3197 5.39318 23.9765 6.72055L25.9128 7.22132C26.1695 6.22869 26.6067 5.56023 27.1743 5.12356L25.9549 3.53831ZM25.2218 6.01011L22.1018 5.11011L21.5474 7.03176L24.6674 7.93176L25.2218 6.01011ZM22.8045 6.27025C23.0139 5.24088 23.4259 4.37604 24.0314 3.65287L22.4979 2.369C21.6633 3.36584 21.1153 4.54099 20.8447 5.87163L22.8045 6.27025ZM24.0386 3.64417C24.6619 2.88235 25.4202 2.29588 26.3237 1.8789L25.4856 0.0629768C24.309 0.60599 23.3073 1.37952 22.4907 2.3777L24.0386 3.64417ZM26.3171 1.88189C27.2412 1.46342 28.2398 1.25094 29.3246 1.25094V-0.749063C27.9694 -0.749063 26.688 -0.481545 25.4921 0.0599818L26.3171 1.88189ZM29.3246 1.25094C30.6172 1.25094 31.696 1.4962 32.5907 1.95198L33.4985 0.169898C32.2732 -0.45433 30.8721 -0.749063 29.3246 -0.749063V1.25094ZM32.6042 1.95873C33.5071 2.40166 34.1795 3.00766 34.6536 3.77604L36.3556 2.72583C35.6698 1.61421 34.7021 0.760208 33.485 0.163147L32.6042 1.95873ZM34.6617 3.78897C35.1479 4.55063 35.4046 5.44953 35.4046 6.52094H37.4046C37.4046 5.11235 37.0614 3.83124 36.3475 2.7129L34.6617 3.78897ZM35.4046 6.52094C35.4046 7.20706 35.2715 7.87836 34.9994 8.54138L36.8498 9.30049C37.2178 8.40352 37.4046 7.47481 37.4046 6.52094H35.4046ZM34.9945 8.55377C34.735 9.21097 34.3151 9.94395 33.7124 10.7539L35.3168 11.9479C35.9941 11.0379 36.5142 10.1509 36.8548 9.28811L34.9945 8.55377ZM33.7192 10.7449C33.1067 11.5488 32.3115 12.4714 31.3272 13.5147L32.782 14.8872C33.7978 13.8105 34.6425 12.8331 35.31 11.957L33.7192 10.7449ZM31.3251 13.517L25.9251 19.277L27.3841 20.6449L32.7841 14.8849L31.3251 13.517ZM26.6546 20.9609H36.8246V18.9609H26.6546V20.9609ZM35.8246 19.9609V22.9609H37.8246V19.9609H35.8246ZM36.8246 21.9609H21.9746V23.9609H36.8246V21.9609Z" fill="white" mask="url(#path-1-outside-1_3732_1222)"/>
</svg>
