<svg width="38" height="24" viewBox="0 0 38 24" fill="none" xmlns="http://www.w3.org/2000/svg">
<mask id="path-1-outside-1_3732_1224" maskUnits="userSpaceOnUse" x="-1" y="-1.03906" width="40" height="26" fill="black">
<rect fill="white" x="-1" y="-1.03906" width="40" height="26"/>
<path d="M9.77 23.3209C7.99 23.3209 6.43 22.8409 5.09 21.8809C3.75 20.9009 2.7 19.5509 1.94 17.8309C1.2 16.0909 0.83 14.0709 0.83 11.7709C0.83 9.45094 1.2 7.43094 1.94 5.71094C2.7 3.99094 3.74 2.65094 5.06 1.69094C6.4 0.730936 7.96 0.250937 9.74 0.250937C11.52 0.250937 13.07 0.730936 14.39 1.69094C15.73 2.65094 16.77 4.00094 17.51 5.74094C18.27 7.46094 18.65 9.47094 18.65 11.7709C18.65 14.0709 18.28 16.0909 17.54 17.8309C16.8 19.5509 15.76 20.9009 14.42 21.8809C13.1 22.8409 11.55 23.3209 9.77 23.3209ZM9.77 20.0809C10.87 20.0809 11.82 19.7409 12.62 19.0609C13.42 18.3809 14.04 17.4209 14.48 16.1809C14.92 14.9409 15.14 13.4709 15.14 11.7709C15.14 10.0709 14.92 8.60094 14.48 7.36094C14.04 6.12094 13.42 5.16094 12.62 4.48094C11.82 3.80094 10.86 3.46094 9.74 3.46094C8.64 3.46094 7.69 3.80094 6.89 4.48094C6.09 5.16094 5.47 6.12094 5.03 7.36094C4.59 8.60094 4.37 10.0709 4.37 11.7709C4.37 13.4509 4.59 14.9209 5.03 16.1809C5.47 17.4209 6.09 18.3809 6.89 19.0609C7.71 19.7409 8.67 20.0809 9.77 20.0809ZM29.2646 23.3209C28.0646 23.3209 26.9346 23.1009 25.8746 22.6609C24.8346 22.2209 23.9346 21.6009 23.1746 20.8009C22.4346 20.0009 21.9046 19.0609 21.5846 17.9809L24.5846 16.8409C24.9846 17.9009 25.5946 18.7209 26.4146 19.3009C27.2346 19.8809 28.1846 20.1709 29.2646 20.1709C30.1446 20.1709 30.9046 20.0009 31.5446 19.6609C32.2046 19.3209 32.7146 18.8409 33.0746 18.2209C33.4546 17.6009 33.6446 16.8509 33.6446 15.9709C33.6446 15.1109 33.4546 14.3709 33.0746 13.7509C32.7146 13.1309 32.2046 12.6609 31.5446 12.3409C30.9046 12.0209 30.1446 11.8609 29.2646 11.8609C28.9046 11.8609 28.5346 11.8909 28.1546 11.9509C27.7946 12.0109 27.4746 12.0909 27.1946 12.1909L26.4146 10.5409L32.2946 3.61094H22.7846V0.610936H36.2546V3.46094L30.4946 10.3609L30.4046 9.22094C31.7446 9.24094 32.9246 9.54094 33.9446 10.1209C34.9646 10.6809 35.7546 11.4609 36.3146 12.4609C36.8946 13.4409 37.1846 14.5809 37.1846 15.8809C37.1846 17.2809 36.8446 18.5509 36.1646 19.6909C35.4846 20.8109 34.5446 21.7009 33.3446 22.3609C32.1646 23.0009 30.8046 23.3209 29.2646 23.3209Z"/>
</mask>
<path d="M5.09 21.8809L4.49965 22.6881L4.50762 22.6938L5.09 21.8809ZM1.94 17.8309L1.01967 18.2223L1.02531 18.2351L1.94 17.8309ZM1.94 5.71094L1.02527 5.30675L1.02141 5.31573L1.94 5.71094ZM5.06 1.69094L4.4776 0.878002L4.47183 0.8822L5.06 1.69094ZM14.39 1.69094L13.8018 2.49969L13.8076 2.50385L14.39 1.69094ZM17.51 5.74094L16.5897 6.13234L16.5953 6.1451L17.51 5.74094ZM17.54 17.8309L18.4586 18.2261L18.4602 18.2223L17.54 17.8309ZM14.42 21.8809L15.0082 22.6897L15.0103 22.6881L14.42 21.8809ZM12.62 19.0609L11.9724 18.299L12.62 19.0609ZM14.48 7.36094L15.4224 7.02653L14.48 7.36094ZM12.62 4.48094L13.2676 3.719L13.2676 3.719L12.62 4.48094ZM6.89 4.48094L6.24235 3.719L6.24235 3.719L6.89 4.48094ZM5.03 7.36094L4.08757 7.02653L5.03 7.36094ZM5.03 16.1809L4.0859 16.5106L4.08757 16.5153L5.03 16.1809ZM6.89 19.0609L6.2423 19.8229L6.25166 19.8307L6.89 19.0609ZM9.77 22.3209C8.1813 22.3209 6.8288 21.8965 5.67239 21.068L4.50762 22.6938C6.0312 23.7854 7.7987 24.3209 9.77 24.3209V22.3209ZM5.68032 21.0738C4.4999 20.2105 3.55337 19.008 2.85469 17.4268L1.02531 18.2351C1.84663 20.0939 3.0001 21.5914 4.49968 22.6881L5.68032 21.0738ZM2.86024 17.4396C2.18295 15.847 1.83 13.9648 1.83 11.7709H-0.17C-0.17 14.177 0.217051 16.3348 1.01976 18.2223L2.86024 17.4396ZM1.83 11.7709C1.83 9.55531 2.1835 7.67528 2.85859 6.10614L1.02141 5.31573C0.216503 7.18659 -0.17 9.34656 -0.17 11.7709H1.83ZM2.85469 6.1151C3.55441 4.53151 4.49127 3.34106 5.64817 2.49967L4.47183 0.8822C2.98873 1.96082 1.84559 3.45036 1.02531 5.30677L2.85469 6.1151ZM5.64239 2.50385C6.7988 1.67538 8.15131 1.25094 9.74 1.25094V-0.749063C7.7687 -0.749063 6.0012 -0.213503 4.47762 0.878023L5.64239 2.50385ZM9.74 1.25094C11.3288 1.25094 12.6684 1.67534 13.8018 2.49967L14.9782 0.8822C13.4716 -0.21347 11.7112 -0.749063 9.74 -0.749063V1.25094ZM13.8076 2.50385C14.9776 3.34203 15.9108 4.53583 16.5898 6.1323L18.4302 5.34957C17.6292 3.46604 16.4824 1.95985 14.9724 0.878023L13.8076 2.50385ZM16.5953 6.1451C17.288 7.71271 17.65 9.57981 17.65 11.7709H19.65C19.65 9.36206 19.252 7.20917 18.4247 5.33677L16.5953 6.1451ZM17.65 11.7709C17.65 13.9648 17.2971 15.847 16.6198 17.4396L18.4602 18.2223C19.2629 16.3348 19.65 14.177 19.65 11.7709H17.65ZM16.6214 17.4357C15.9428 19.013 15.0077 20.2123 13.8297 21.0738L15.0103 22.6881C16.5123 21.5896 17.6572 20.0889 18.4586 18.2261L16.6214 17.4357ZM13.8318 21.0722C12.6984 21.8965 11.3588 22.3209 9.77 22.3209V24.3209C11.7412 24.3209 13.5016 23.7853 15.0082 22.6897L13.8318 21.0722ZM9.77 21.0809C11.095 21.0809 12.2777 20.6643 13.2676 19.8229L11.9724 18.299C11.3623 18.8175 10.645 19.0809 9.77 19.0809V21.0809ZM13.2676 19.8229C14.2318 19.0033 14.9383 17.8798 15.4224 16.5153L13.5376 15.8465C13.1417 16.962 12.6082 17.7585 11.9724 18.299L13.2676 19.8229ZM15.4224 16.5153C15.9098 15.1418 16.14 13.5533 16.14 11.7709H14.14C14.14 13.3886 13.9302 14.7401 13.5376 15.8465L15.4224 16.5153ZM16.14 11.7709C16.14 9.98856 15.9098 8.40008 15.4224 7.02653L13.5376 7.69535C13.9302 8.80179 14.14 10.1533 14.14 11.7709H16.14ZM15.4224 7.02653C14.9383 5.66204 14.2318 4.53855 13.2676 3.719L11.9724 5.24288C12.6082 5.78333 13.1417 6.57983 13.5376 7.69535L15.4224 7.02653ZM13.2676 3.719C12.2742 2.87458 11.0802 2.46094 9.74 2.46094V4.46094C10.6398 4.46094 11.3658 4.7273 11.9724 5.24288L13.2676 3.719ZM9.74 2.46094C8.41501 2.46094 7.23231 2.87754 6.24235 3.719L7.53765 5.24288C8.14769 4.72434 8.86499 4.46094 9.74 4.46094V2.46094ZM6.24235 3.719C5.27818 4.53855 4.57174 5.66204 4.08757 7.02653L5.97243 7.69535C6.36826 6.57983 6.90182 5.78333 7.53765 5.24288L6.24235 3.719ZM4.08757 7.02653C3.60018 8.40008 3.37 9.98856 3.37 11.7709H5.37C5.37 10.1533 5.57982 8.80179 5.97243 7.69535L4.08757 7.02653ZM3.37 11.7709C3.37 13.5354 3.60074 15.1213 4.08591 16.5106L5.97409 15.8513C5.57926 14.7206 5.37 13.3665 5.37 11.7709H3.37ZM4.08757 16.5153C4.57174 17.8798 5.27818 19.0033 6.24235 19.8229L7.53765 18.299C6.90182 17.7585 6.36826 16.962 5.97243 15.8465L4.08757 16.5153ZM6.25166 19.8307C7.25737 20.6647 8.44516 21.0809 9.77 21.0809V19.0809C8.89485 19.0809 8.16264 18.8172 7.52834 18.2912L6.25166 19.8307ZM25.8746 22.6609L25.485 23.5819L25.4912 23.5845L25.8746 22.6609ZM23.1746 20.8009L22.4404 21.48L22.4496 21.4897L23.1746 20.8009ZM21.5846 17.9809L21.2294 17.0462L20.3623 17.3757L20.6258 18.265L21.5846 17.9809ZM24.5846 16.8409L25.5202 16.4879L25.1663 15.5501L24.2294 15.9062L24.5846 16.8409ZM26.4146 19.3009L26.9921 18.4845L26.4146 19.3009ZM31.5446 19.6609L31.0866 18.7719L31.0755 18.7778L31.5446 19.6609ZM33.0746 18.2209L32.222 17.6984L32.2158 17.7085L32.2098 17.7188L33.0746 18.2209ZM33.0746 13.7509L32.2098 14.2531L32.2158 14.2634L32.222 14.2735L33.0746 13.7509ZM31.5446 12.3409L31.0974 13.2354L31.1083 13.2408L31.5446 12.3409ZM28.1546 11.9509L27.9986 10.9631L27.9902 10.9645L28.1546 11.9509ZM27.1946 12.1909L26.2905 12.6183L26.6777 13.4374L27.5309 13.1327L27.1946 12.1909ZM26.4146 10.5409L25.6521 9.89396L25.235 10.3855L25.5105 10.9683L26.4146 10.5409ZM32.2946 3.61094L33.0571 4.25791L34.4546 2.61094H32.2946V3.61094ZM22.7846 3.61094H21.7846V4.61094H22.7846V3.61094ZM22.7846 0.610936V-0.389064H21.7846V0.610936H22.7846ZM36.2546 0.610936H37.2546V-0.389064H36.2546V0.610936ZM36.2546 3.46094L37.0223 4.10178L37.2546 3.82347V3.46094H36.2546ZM30.4946 10.3609L29.4977 10.4396L29.6907 12.8844L31.2623 11.0018L30.4946 10.3609ZM30.4046 9.22094L30.4195 8.22105L29.3213 8.20466L29.4077 9.29964L30.4046 9.22094ZM33.9446 10.1209L33.4503 10.9902L33.4568 10.9939L33.4634 10.9975L33.9446 10.1209ZM36.3146 12.4609L35.4421 12.9495L35.4479 12.96L35.454 12.9703L36.3146 12.4609ZM36.1646 19.6909L37.0194 20.2099L37.0234 20.2032L36.1646 19.6909ZM33.3446 22.3609L33.8214 23.24L33.8265 23.2372L33.3446 22.3609ZM29.2646 22.3209C28.1901 22.3209 27.191 22.1246 26.258 21.7373L25.4912 23.5845C26.6783 24.0773 27.9391 24.3209 29.2646 24.3209V22.3209ZM26.2642 21.74C25.3478 21.3522 24.5627 20.8102 23.8996 20.1122L22.4496 21.4897C23.3065 22.3917 24.3215 23.0896 25.485 23.5819L26.2642 21.74ZM23.9087 20.1219C23.2765 19.4384 22.8213 18.6348 22.5434 17.6968L20.6258 18.265C20.9879 19.4871 21.5927 20.5635 22.4405 21.48L23.9087 20.1219ZM21.9398 18.9157L24.9398 17.7757L24.2294 15.9062L21.2294 17.0462L21.9398 18.9157ZM23.649 17.194C24.1101 18.416 24.8339 19.4077 25.8371 20.1174L26.9921 18.4845C26.3554 18.0342 25.8591 17.3859 25.5202 16.4879L23.649 17.194ZM25.8371 20.1174C26.8389 20.8259 27.9942 21.1709 29.2646 21.1709V19.1709C28.375 19.1709 27.6303 18.9359 26.9921 18.4845L25.8371 20.1174ZM29.2646 21.1709C30.2735 21.1709 31.2015 20.9756 32.0138 20.5441L31.0755 18.7778C30.6078 19.0263 30.0157 19.1709 29.2646 19.1709V21.1709ZM32.0026 20.5499C32.826 20.1257 33.48 19.5143 33.9394 18.7231L32.2098 17.7188C31.9492 18.1676 31.5833 18.5161 31.0867 18.772L32.0026 20.5499ZM33.9272 18.7435C34.4221 17.9361 34.6446 16.9965 34.6446 15.9709H32.6446C32.6446 16.7054 32.4871 17.2658 32.222 17.6984L33.9272 18.7435ZM34.6446 15.9709C34.6446 14.9605 34.42 14.0323 33.9272 13.2284L32.222 14.2735C32.4893 14.7095 32.6446 15.2613 32.6446 15.9709H34.6446ZM33.9394 13.2488C33.4769 12.4523 32.8157 11.8459 31.9809 11.4411L31.1083 13.2408C31.5935 13.476 31.9523 13.8095 32.2098 14.2531L33.9394 13.2488ZM31.9918 11.4465C31.1847 11.0429 30.2648 10.8609 29.2646 10.8609V12.8609C30.0244 12.8609 30.6245 12.9989 31.0974 13.2354L31.9918 11.4465ZM29.2646 10.8609C28.849 10.8609 28.4267 10.8956 27.9986 10.9632L28.3106 12.9387C28.6425 12.8863 28.9603 12.8609 29.2646 12.8609V10.8609ZM27.9902 10.9645C27.5843 11.0322 27.205 11.1253 26.8583 11.2492L27.5309 13.1327C27.7442 13.0565 28.0049 12.9897 28.319 12.9373L27.9902 10.9645ZM28.0987 11.7636L27.3187 10.1136L25.5105 10.9683L26.2905 12.6183L28.0987 11.7636ZM27.1771 11.1879L33.0571 4.25791L31.5321 2.96396L25.6521 9.89396L27.1771 11.1879ZM32.2946 2.61094H22.7846V4.61094H32.2946V2.61094ZM23.7846 3.61094V0.610936H21.7846V3.61094H23.7846ZM22.7846 1.61094H36.2546V-0.389064H22.7846V1.61094ZM35.2546 0.610936V3.46094H37.2546V0.610936H35.2546ZM35.4869 2.8201L29.7269 9.7201L31.2623 11.0018L37.0223 4.10178L35.4869 2.8201ZM31.4915 10.2822L31.4015 9.14223L29.4077 9.29964L29.4977 10.4396L31.4915 10.2822ZM30.3897 10.2208C31.5856 10.2387 32.5963 10.5046 33.4503 10.9902L34.4389 9.25165C33.253 8.57729 31.9036 8.2432 30.4195 8.22105L30.3897 10.2208ZM33.4634 10.9975C34.3218 11.4688 34.9751 12.1156 35.4421 12.9495L37.1871 11.9723C36.5341 10.8063 35.6074 9.89304 34.4259 9.24436L33.4634 10.9975ZM35.454 12.9703C35.9304 13.7752 36.1846 14.7343 36.1846 15.8809H38.1846C38.1846 14.4276 37.8588 13.1066 37.1752 11.9516L35.454 12.9703ZM36.1846 15.8809C36.1846 17.1109 35.8883 18.2022 35.3058 19.1787L37.0234 20.2032C37.801 18.8997 38.1846 17.451 38.1846 15.8809H36.1846ZM35.3098 19.172C34.7249 20.1354 33.9165 20.9051 32.8627 21.4847L33.8265 23.2372C35.1727 22.4967 36.2443 21.4865 37.0194 20.2099L35.3098 19.172ZM32.8678 21.4819C31.8545 22.0315 30.6628 22.3209 29.2646 22.3209V24.3209C30.9464 24.3209 32.4747 23.9704 33.8214 23.24L32.8678 21.4819Z" fill="white" mask="url(#path-1-outside-1_3732_1224)"/>
</svg>
