<svg width="65" height="66" viewBox="0 0 65 66" fill="none" xmlns="http://www.w3.org/2000/svg">
<g clip-path="url(#clip0_3732_1250)">
<path d="M60.2488 19.3691C60.2489 16.6678 59.448 14.0272 57.9473 11.7811C56.4466 9.53505 54.3136 7.78444 51.818 6.75067C49.3224 5.71689 46.5762 5.44638 43.9269 5.97335C41.2775 6.50031 38.8439 7.80108 36.9338 9.71117C35.0237 11.6213 33.723 14.0549 33.196 16.7042C32.669 19.3536 32.9395 22.0997 33.9733 24.5953C35.0071 27.091 36.7577 29.224 39.0038 30.7247C41.2498 32.2253 43.8905 33.0263 46.5917 33.0262C50.2126 33.0221 53.684 31.582 56.2443 29.0217C58.8046 26.4613 60.2448 22.9899 60.2488 19.3691ZM34.7115 19.3691C34.7114 17.0194 35.408 14.7224 36.7134 12.7686C38.0188 10.8148 39.8742 9.29203 42.045 8.39277C44.2158 7.4935 46.6046 7.25816 48.9091 7.7165C51.2137 8.17485 53.3306 9.30629 54.9922 10.9678C56.6537 12.6292 57.7852 14.7461 58.2437 17.0506C58.7021 19.3552 58.4669 21.744 57.5677 23.9148C56.6685 26.0857 55.1458 27.9412 53.1921 29.2466C51.2384 30.5521 48.9414 31.2488 46.5917 31.2488C43.4421 31.2452 40.4225 29.9924 38.1953 27.7654C35.9681 25.5383 34.7152 22.5187 34.7115 19.3691Z" fill="white"/>
<path d="M53.3211 46.7301H22.662V43.7203H46.5926C46.7151 43.7199 46.8362 43.6939 46.9481 43.6441H46.9511C47.6895 43.3181 65.0008 35.4632 65.0008 19.3691C65.0008 14.487 63.0614 9.80478 59.6092 6.35258C56.157 2.90037 51.4748 0.960938 46.5926 0.960938C41.7105 0.960938 37.0283 2.90037 33.576 6.35258C30.1238 9.80478 28.1844 14.487 28.1844 19.3691C28.1844 27.7343 32.8614 33.8687 37.4566 37.8804H22.2811C20.8338 37.882 19.4462 38.4577 18.4228 39.4811C17.3994 40.5045 16.8237 41.8921 16.8221 43.3394V47.1094C16.8237 48.5567 17.3994 49.9443 18.4228 50.9677C19.4462 51.9911 20.8338 52.5668 22.2811 52.5684H52.9403V55.2004H15.1082C14.4299 53.5104 13.1844 52.1093 11.5856 51.2376C9.98671 50.3659 8.13426 50.0781 6.34629 50.4235C4.55831 50.769 2.94638 51.7261 1.78726 53.1306C0.628132 54.5351 -0.00585938 56.2993 -0.00585938 58.1203C-0.00585938 59.9413 0.628132 61.7056 1.78726 63.1101C2.94638 64.5146 4.55831 65.4717 6.34629 65.8171C8.13426 66.1625 9.98671 65.8747 11.5856 65.003C13.1844 64.1314 14.4299 62.7302 15.1082 61.0402H53.3211C54.7685 61.0386 56.156 60.463 57.1794 59.4396C58.2029 58.4162 58.7785 57.0286 58.7801 55.5813V52.1875C58.7781 50.7405 58.2023 49.3533 57.1789 48.3302C56.1555 47.3071 54.7682 46.7317 53.3211 46.7301ZM29.9618 19.3691C29.9618 14.9584 31.7139 10.7282 34.8328 7.60935C37.9517 4.49046 42.1818 2.73828 46.5926 2.73828C51.0034 2.73828 55.2335 4.49046 58.3524 7.60935C61.4713 10.7282 63.2235 14.9584 63.2235 19.3691C63.2235 33.0714 49.0504 40.6399 46.5921 41.8485C44.1323 40.6419 29.9618 33.0907 29.9618 19.3691ZM7.83992 64.1851C6.64096 64.1851 5.46892 63.8296 4.47201 63.1635C3.4751 62.4974 2.69808 61.5507 2.23921 60.443C1.78034 59.3353 1.66023 58.1165 1.89406 56.9405C2.12789 55.7646 2.70517 54.6844 3.55289 53.8365C4.40061 52.9887 5.48071 52.4112 6.65661 52.1772C7.8325 51.9432 9.05139 52.0631 10.1591 52.5218C11.2669 52.9804 12.2138 53.7573 12.88 54.7541C13.5463 55.7509 13.902 56.9229 13.9022 58.1218C13.9007 59.7293 13.2616 61.2705 12.125 62.4072C10.9885 63.544 9.44737 64.1834 7.83992 64.1851ZM57.0028 55.5828C57.0017 56.5589 56.6135 57.4947 55.9233 58.1849C55.2331 58.8751 54.2972 59.2633 53.3211 59.2644H15.5866C15.7105 58.5077 15.7105 57.7359 15.5866 56.9793H53.3211C53.6914 56.9789 54.0463 56.8316 54.3082 56.5698C54.57 56.308 54.7172 55.953 54.7176 55.5828V52.1891C54.7174 51.8188 54.5701 51.4637 54.3083 51.2019C54.0465 50.9401 53.6914 50.7929 53.3211 50.7926H22.2811C21.305 50.7915 20.3692 50.4033 19.679 49.7131C18.9888 49.0229 18.6005 48.087 18.5995 47.1109V43.3409C18.6005 42.3648 18.9888 41.429 19.679 40.7388C20.3692 40.0486 21.305 39.6604 22.2811 39.6593H39.6529C40.7454 40.4777 41.8786 41.2404 43.0481 41.9445H22.2811C21.9108 41.9447 21.5558 42.0919 21.2939 42.3538C21.0321 42.6156 20.8849 42.9707 20.8846 43.3409V47.1109C20.885 47.4812 21.0323 47.8362 21.2941 48.098C21.5559 48.3598 21.9108 48.507 22.2811 48.5074H53.3211C54.2972 48.5085 55.2331 48.8967 55.9233 49.5869C56.6135 50.2771 57.0017 51.213 57.0028 52.1891V55.5828Z" fill="white"/>
</g>
<defs>
<clipPath id="clip0_3732_1250">
<rect width="65" height="65" fill="white" transform="translate(0 0.960938)"/>
</clipPath>
</defs>
</svg>
