<svg width="65" height="66" viewBox="0 0 65 66" fill="none" xmlns="http://www.w3.org/2000/svg">
<path d="M57.3741 39.8912C59.5123 33.5901 59.4557 26.7509 57.2136 20.4861C54.9714 14.2213 50.6756 8.89934 45.0249 5.38586C39.3742 1.87238 32.7009 0.374078 26.0906 1.13465C19.4802 1.89522 13.3216 4.86993 8.61651 9.57493C3.91138 14.2799 0.936515 20.4384 0.17576 27.0488C-0.584995 33.6591 0.913121 40.3324 4.42644 45.9832C7.93976 51.634 13.2616 55.93 19.5264 58.1723C25.7911 60.4146 32.6303 60.4714 38.9314 58.3334C39.9034 60.2864 41.3261 61.9803 43.0819 63.275C44.8377 64.5698 46.8763 65.4283 49.0294 65.7797C51.1824 66.1312 53.3882 65.9655 55.4646 65.2962C57.541 64.627 59.4284 63.4735 60.971 61.9309C62.5137 60.3883 63.6672 58.5009 64.3365 56.4246C65.0058 54.3482 65.1716 52.1424 64.8202 49.9893C64.4688 47.8363 63.6103 45.7976 62.3156 44.0418C61.0209 42.2859 59.3271 40.8632 57.3741 39.8912ZM55.7324 39.2005C52.3527 38.0287 48.6488 38.224 45.4111 39.7449L46.7136 37.4714C46.7906 37.3369 46.8311 37.1846 46.8309 37.0296V32.8275L49.5924 29.9868C49.7538 29.821 49.844 29.5986 49.8438 29.3672V25.7521C49.8438 25.5581 49.7802 25.3694 49.6629 25.2148C49.5455 25.0603 49.3807 24.9485 49.1938 24.8965L44.3188 23.5376L42.516 20.0103C42.4522 19.8855 42.3598 19.7776 42.2463 19.6954C42.1328 19.6131 42.0014 19.5588 41.863 19.537L34.9517 18.4498V17.7713L44.2812 15.7066L47.7673 19.1902C47.9342 19.3568 48.1602 19.4505 48.396 19.4507H54.8858C57.5915 25.7042 57.8929 32.7364 55.7324 39.1985V39.2005ZM54.0358 17.6754H48.7637L45.1953 14.1054C45.0896 13.9999 44.9592 13.9227 44.8158 13.8808C44.6725 13.8389 44.521 13.8337 44.3751 13.8658L33.871 16.19C33.6736 16.2338 33.4969 16.3436 33.3703 16.5013C33.2436 16.659 33.1745 16.8551 33.1743 17.0574V19.2095C33.1744 19.4212 33.2501 19.6259 33.3877 19.7867C33.5253 19.9476 33.7158 20.0541 33.9249 20.087L41.1394 21.2214L42.9132 24.6928C42.969 24.8022 43.0469 24.8988 43.142 24.9765C43.2371 25.0542 43.3473 25.1113 43.4657 25.1443L48.0664 26.4265V29.0062L45.305 31.8469C45.1438 32.0128 45.0536 32.2351 45.0536 32.4664V36.7925L42.1194 41.9158C40.932 42.9691 39.9344 44.2185 39.1701 45.6096H37.1896V42.7969C37.1896 42.6737 37.164 42.5519 37.1144 42.4391C37.0648 42.3263 36.9924 42.2251 36.9017 42.1418L33.0585 38.6181V34.5322C33.0585 34.3498 33.0024 34.1719 32.8977 34.0225C32.7931 33.8731 32.645 33.7596 32.4735 33.6974L24.5354 30.811V24.2094L29.7222 18.6087C29.8063 18.518 29.8704 18.4107 29.9106 18.2938C29.9509 18.1769 29.9662 18.0528 29.9558 17.9296C29.9453 17.8064 29.9092 17.6867 29.8499 17.5782C29.7905 17.4697 29.7091 17.3748 29.611 17.2996L24.867 13.6606L28.7548 8.17623H36.6884C36.924 8.17611 37.15 8.08241 37.3166 7.91572L40.2913 4.94146C46.2056 7.47195 51.0619 11.9712 54.0358 17.6754ZM11.5918 9.30459L13.8231 13.9008L12.0265 14.7996C11.9382 14.8437 11.8579 14.9023 11.7888 14.9728L7.57093 19.2765C7.45436 19.3954 7.37352 19.5446 7.33761 19.7072C7.3017 19.8698 7.31216 20.0392 7.3678 20.1962L7.97261 21.8963C7.27929 22.3236 6.65139 22.8488 6.10843 23.4558L2.52479 24.0591C3.89382 18.2988 7.07127 13.1282 11.5918 9.30459ZM1.7839 30.6865H4.69519L12.0407 33.4496L15.7985 39.8114V42.3576L14.6976 44.0293C14.5769 44.2121 14.5281 44.433 14.5604 44.6496C14.5928 44.8663 14.704 45.0633 14.8728 45.2029L15.1521 45.4334L12.4866 47.0269C12.3547 47.1057 12.2456 47.2173 12.1698 47.3507C12.094 47.4842 12.054 47.6351 12.0539 47.7887V51.9339C8.88021 49.3697 6.31346 46.1347 4.53784 42.4611C2.76222 38.7876 1.82174 34.7665 1.7839 30.6865ZM29.4683 58.1191C23.8827 58.1241 18.4277 56.4299 13.8277 53.2614C13.8277 53.2502 13.8307 53.2395 13.8307 53.2284V48.2939L17.1427 46.3135C17.2649 46.2406 17.3679 46.1394 17.4429 46.0184C17.5178 45.8974 17.5626 45.7602 17.5735 45.6183C17.5843 45.4764 17.5609 45.3339 17.5052 45.203C17.4495 45.072 17.3631 44.9563 17.2534 44.8657L16.6196 44.3411L17.4286 43.1132C17.5245 42.9682 17.5756 42.7981 17.5753 42.6242V39.5682C17.5755 39.4094 17.5329 39.2534 17.4519 39.1167L13.4118 32.2765C13.3087 32.102 13.1491 31.9679 12.9593 31.8967L5.16948 28.9661C5.06947 28.9285 4.96351 28.9092 4.85667 28.9092H1.82046C1.87628 27.909 1.98596 26.9126 2.14901 25.9243L6.71933 25.1555C6.93038 25.1199 7.12152 25.0094 7.25761 24.8442C7.86044 24.1144 8.6106 23.5201 9.45897 23.1003C9.65315 23.0034 9.80513 22.8387 9.88623 22.6374C9.96734 22.4361 9.97197 22.212 9.89925 22.0075L9.22893 20.1225L12.9542 16.3215L15.4034 15.0967C15.6126 14.992 15.7721 14.8091 15.8474 14.5877C15.9227 14.3662 15.9077 14.124 15.8056 13.9135L13.0167 8.17064C16.6213 5.49728 20.8232 3.74287 25.2586 3.05932C29.694 2.37578 34.2291 2.78371 38.4713 4.24779L36.3202 6.39888H28.2953C28.1533 6.39894 28.0133 6.433 27.8872 6.4982C27.761 6.56339 27.6523 6.65784 27.5701 6.77365L22.9221 13.331C22.7893 13.5186 22.7343 13.7503 22.7686 13.9776C22.803 14.2048 22.9241 14.4099 23.1064 14.5498L27.7555 18.1156L22.9952 23.2527C22.8428 23.417 22.7581 23.6328 22.7581 23.857V31.4335C22.7581 31.6159 22.8142 31.7939 22.9189 31.9432C23.0235 32.0926 23.1716 32.2061 23.3431 32.2684L31.2812 35.1548V39.0091C31.2812 39.1323 31.3068 39.2541 31.3564 39.3669C31.406 39.4796 31.4784 39.5809 31.5691 39.6642L35.4128 43.1874V46.4983C35.4128 46.734 35.5064 46.96 35.673 47.1267C35.8397 47.2934 36.0657 47.387 36.3014 47.387H38.3565C37.235 50.3807 37.1942 53.6721 38.2413 56.6926C35.4131 57.6385 32.4505 58.1203 29.4683 58.1191ZM51.2423 64.1824C48.8727 64.1825 46.5562 63.4799 44.5859 62.1635C42.6156 60.847 41.0799 58.9759 40.173 56.7866C39.2662 54.5974 39.0289 52.1884 39.4911 49.8643C39.9534 47.5402 41.0945 45.4054 42.7701 43.7298C44.4456 42.0543 46.5805 40.9132 48.9046 40.4509C51.2287 39.9886 53.6376 40.2259 55.8269 41.1328C58.0161 42.0397 59.8873 43.5754 61.2037 45.5457C62.5201 47.516 63.2227 49.8324 63.2226 52.2021C63.219 55.3783 61.9556 58.4235 59.7096 60.6694C57.4637 62.9154 54.4186 64.1787 51.2423 64.1824Z" fill="white"/>
<path d="M60.757 47.1786L59.6271 46.0482C59.076 45.4971 58.3285 45.1875 57.5491 45.1875C56.7697 45.1875 56.0223 45.4971 55.4712 46.0482L53.1007 48.4182L49.0585 47.4823C48.5161 47.355 47.9502 47.3687 47.4146 47.5221C46.879 47.6755 46.3916 47.9636 45.9989 48.3588L45.0651 49.2931C44.9626 49.3954 44.8867 49.5211 44.844 49.6594C44.8012 49.7976 44.7929 49.9442 44.8197 50.0865C44.8465 50.2287 44.9077 50.3622 44.9979 50.4754C45.0881 50.5885 45.2046 50.678 45.3373 50.7358L49.1281 52.3913L47.6351 53.8838L44.085 54.2128C43.8788 54.2311 43.6855 54.3209 43.5386 54.4667L41.7267 56.2781C41.6173 56.3877 41.5385 56.5239 41.4979 56.6733C41.4573 56.8227 41.4564 56.9801 41.4954 57.1299C41.5343 57.2798 41.6117 57.4169 41.7199 57.5276C41.828 57.6384 41.9633 57.719 42.1121 57.7614L46.5464 59.0228C47.4009 59.2659 48.3049 59.2764 49.1649 59.0532C50.0248 58.83 50.8096 58.3812 51.4381 57.7533L60.757 48.4344C60.8396 48.352 60.9051 48.2541 60.9498 48.1463C60.9945 48.0385 61.0175 47.9229 61.0175 47.8063C61.0175 47.6896 60.9945 47.574 60.9498 47.4662C60.9051 47.3585 60.8396 47.261 60.757 47.1786ZM50.1813 56.497C49.7769 56.9013 49.2718 57.1903 48.7183 57.3341C48.1648 57.478 47.5829 57.4714 47.0328 57.315L44.054 56.468L44.5689 55.9531L48.1191 55.6235C48.3253 55.6054 48.5186 55.5156 48.6655 55.3696L51.3061 52.729C51.4084 52.6267 51.4842 52.501 51.5268 52.3628C51.5695 52.2245 51.5778 52.078 51.5509 51.9358C51.524 51.7937 51.4628 51.6603 51.3726 51.5471C51.2824 51.434 51.166 51.3447 51.0334 51.2868L47.2431 49.6308L47.2563 49.6176C47.436 49.4365 47.6591 49.3044 47.9045 49.2342C48.1498 49.164 48.409 49.1578 48.6573 49.2165L53.1804 50.2636C53.3273 50.2976 53.4804 50.2936 53.6253 50.252C53.7703 50.2105 53.9022 50.1326 54.0087 50.0259L56.728 47.3076C56.949 47.096 57.2432 46.9778 57.5491 46.9778C57.8551 46.9778 58.1493 47.096 58.3703 47.3076L58.872 47.8093L50.1813 56.497Z" fill="white"/>
</svg>
