<svg width="61" height="65" viewBox="0 0 61 65" fill="none" xmlns="http://www.w3.org/2000/svg">
<path d="M51.6758 12.9102C54.1133 12.9102 56.1445 10.9297 56.1445 8.44141C56.1445 5.95313 54.1133 4.02344 51.6758 4.02344C49.2383 4.02344 47.207 6.00391 47.207 8.49219C47.207 10.9297 49.1875 12.9102 51.6758 12.9102ZM51.6758 5.80078C53.1484 5.80078 54.3672 7.01953 54.3672 8.49219C54.3672 9.96484 53.1484 11.1836 51.6758 11.1836C50.2031 11.1836 48.9844 9.96484 48.9844 8.49219C48.9844 7.01953 50.1523 5.80078 51.6758 5.80078Z" fill="white"/>
<path d="M57.008 23.2188C56.1955 21.4922 55.2306 19.8164 54.1134 18.293C56.5509 16.668 60.1564 13.4688 60.1564 8.49219C60.1564 3.76953 56.3478 0.0117188 51.6759 0.0117188C47.0041 0.0117188 43.1447 3.76953 43.1447 8.49219V9.05078C42.4845 8.74609 41.8244 8.44141 41.1642 8.13672C22.0705 0.46875 0.94546 14.332 0.843897 35.4063C0.793116 51.6563 13.8947 64.8594 30.1447 64.9102C46.3947 64.9609 59.5978 51.8594 59.6486 35.6094C59.6486 35.5078 59.6486 35.457 59.6486 35.3555C59.6486 31.1914 58.7345 27.0273 57.008 23.2188ZM51.6759 1.73828C55.383 1.73828 58.3791 4.73438 58.4298 8.49219C58.4298 13.8242 53.1486 16.9727 51.6759 17.6836C50.2541 16.9219 44.922 13.8242 44.922 8.49219C44.922 4.73438 47.9181 1.73828 51.6759 1.73828ZM51.2697 19.5117C51.5236 19.6133 51.7775 19.6133 51.9806 19.5117C52.0314 19.5117 52.2345 19.4102 52.5392 19.207C53.3517 20.3242 54.0626 21.4922 54.7228 22.7109H49.4416L45.8869 19.1563C45.6837 18.9531 45.3791 18.8516 45.0744 18.9023L34.6134 21.2383C34.2072 21.3398 33.9025 21.6953 33.9025 22.1016V24.2344C33.9025 24.6914 34.2072 25.0469 34.6642 25.0977L41.8751 26.2148L43.6525 29.668C43.7541 29.8711 43.9572 30.0742 44.2111 30.125L48.7814 31.3945V33.9844L46.0392 36.8281C45.8869 36.9805 45.7853 37.2344 45.7853 37.4375V41.7539L40.758 50.5391H37.965V47.7461C37.965 47.4922 37.8634 47.2383 37.6603 47.0859L33.8009 43.582V39.5195C33.8009 39.1641 33.547 38.8086 33.2423 38.707L25.3205 35.8125V29.2109L30.5001 23.625C30.8556 23.2695 30.8048 22.7109 30.4494 22.3555L30.3986 22.3047L25.6759 18.6484L29.5353 13.1641H37.4572C37.7111 13.1641 37.9142 13.0625 38.0666 12.9102L41.0119 9.96484C41.8244 10.3203 42.6876 10.7266 43.5001 11.1836C45.1251 16.668 51.0158 19.3594 51.2697 19.5117ZM12.422 14.332L14.6564 18.9531L12.8791 19.8672C12.7775 19.918 12.7267 19.9688 12.6251 20.0195L8.4103 24.3359C8.1564 24.5898 8.10562 24.9453 8.20718 25.25L8.81655 26.9766C8.1564 27.3828 7.49624 27.9414 6.98843 28.5L3.38296 29.1094C4.70327 23.3203 7.90249 18.1406 12.422 14.332ZM13.2853 43.3281C11.8634 42.5664 6.5314 39.4688 6.5314 34.1367C6.58218 30.4297 9.62905 27.4336 13.3361 27.4844C16.9923 27.5352 19.9884 30.4805 19.9884 34.1367C19.9884 39.4688 14.7072 42.6172 13.2853 43.3281ZM2.67202 33.9336C2.7228 32.918 2.82437 31.9531 2.97671 30.9375L5.56655 30.4805C5.05874 31.5469 4.75405 32.7149 4.75405 33.8828H2.67202V33.9336ZM12.8791 52.7734V56.9375C6.48062 51.7578 2.7228 43.9883 2.62124 35.7109H4.9064C5.87124 41.957 12.6251 45.0039 12.9298 45.1563C13.1837 45.2578 13.4376 45.2578 13.6408 45.1563C14.3517 44.8008 15.0119 44.4453 15.672 43.9883L16.5861 44.9024V47.3399L15.4689 49.0156C15.215 49.3711 15.3166 49.8789 15.6212 50.1836L15.8751 50.4375L13.2345 52.0117C13.0314 52.1641 12.8791 52.418 12.8791 52.7734ZM30.2462 63.082C24.6603 63.082 19.2267 61.4063 14.6564 58.2578V53.2813L17.9572 51.3008C18.3634 51.0469 18.5158 50.4883 18.2619 50.082C18.2111 49.9805 18.1603 49.9297 18.0587 49.8789L17.4494 49.3711L18.2619 48.1524C18.3634 48 18.4142 47.8477 18.4142 47.6445V44.5977C18.4142 44.3438 18.3126 44.1406 18.1603 43.9883L17.1955 43.0234C19.4298 41.2461 21.8673 38.3008 21.8673 34.2383C21.8673 29.5664 18.1095 25.7578 13.3869 25.7578C12.3712 25.7578 11.4064 25.9102 10.4416 26.2656L10.0861 25.25L13.7931 21.4414L16.2306 20.2227C16.6876 20.0195 16.84 19.4609 16.6369 19.0547L13.8439 13.3164C21.1564 7.93359 30.6525 6.46094 39.2345 9.40625L37.1017 11.4375H29.0783C28.7736 11.4375 28.5197 11.5898 28.3673 11.793L23.7462 18.3438C23.4923 18.75 23.5431 19.2578 23.9494 19.5625L28.5705 23.1172L23.797 28.2461C23.6447 28.3984 23.5431 28.6016 23.5431 28.8555V36.4219C23.5431 36.7774 23.797 37.1328 24.1017 37.2344L32.0236 40.1289V43.9883C32.0236 44.2422 32.1251 44.4961 32.3283 44.6484L36.1876 48.1524V51.4531C36.1876 51.9609 36.5939 52.3164 37.0509 52.3164H41.2658C41.5705 52.3164 41.8751 52.1641 42.0275 51.8594L47.4611 42.4141C47.5626 42.2617 47.5626 42.1094 47.5626 41.957V37.7422L50.3048 35C50.4572 34.8477 50.5587 34.5938 50.5587 34.3906V30.7852C50.5587 30.3789 50.3048 30.0234 49.8986 29.9219L45.0236 28.5508L43.2462 25.0469C43.0939 24.793 42.8908 24.6406 42.5861 24.5898L35.6798 23.5234V22.8125L44.9728 20.7305L48.4767 24.2344C48.6291 24.3867 48.883 24.4883 49.0861 24.4883H55.5861C57.1095 27.9414 57.8712 31.6484 57.8712 35.457C57.8712 50.6914 45.4806 63.0313 30.2462 63.082Z" fill="white"/>
<path d="M13.2852 29.668C10.8477 29.668 8.81641 31.6484 8.81641 34.1367C8.81641 36.5742 10.7969 38.6055 13.2852 38.6055C15.7734 38.6055 17.7539 36.625 17.7539 34.1367C17.7031 31.6992 15.7227 29.668 13.2852 29.668ZM13.2852 36.8281C11.8125 36.8281 10.5937 35.6094 10.5937 34.1367C10.5937 32.6641 11.8125 31.4453 13.2852 31.4453C14.7578 31.4453 15.9766 32.6641 15.9766 34.1367C15.9766 35.6094 14.7578 36.8281 13.2852 36.8281Z" fill="white"/>
</svg>
