<svg width="45" height="46" viewBox="0 0 45 46" fill="none" xmlns="http://www.w3.org/2000/svg">
<path d="M7.15219 37.6616H4.04297V34.9707C4.04297 34.8075 3.97815 34.651 3.86277 34.5357C3.74739 34.4203 3.5909 34.3555 3.42773 34.3555C3.26456 34.3555 3.10808 34.4203 2.9927 34.5357C2.87732 34.651 2.8125 34.8075 2.8125 34.9707V38.2754C2.8125 38.4386 2.87732 38.595 2.9927 38.7104C3.10808 38.8258 3.26456 38.8906 3.42773 38.8906H7.15219C7.31536 38.8906 7.47185 38.8258 7.58722 38.7104C7.7026 38.595 7.76742 38.4386 7.76742 38.2754C7.76742 38.1122 7.7026 37.9557 7.58722 37.8404C7.47185 37.725 7.31536 37.6602 7.15219 37.6602V37.6616Z" fill="white"/>
<path d="M41.5721 34.3555C41.4913 34.3554 41.4113 34.3713 41.3366 34.4022C41.262 34.4331 41.1941 34.4784 41.137 34.5356C41.0798 34.5927 41.0345 34.6605 41.0036 34.7352C40.9727 34.8099 40.9568 34.8899 40.9569 34.9707V37.6616H37.8477C37.6845 37.6616 37.528 37.7264 37.4126 37.8418C37.2972 37.9571 37.2324 38.1136 37.2324 38.2768C37.2324 38.44 37.2972 38.5965 37.4126 38.7118C37.528 38.8272 37.6845 38.892 37.8477 38.892H41.5721C41.6529 38.8921 41.7329 38.8762 41.8076 38.8453C41.8823 38.8144 41.9501 38.7691 42.0072 38.7119C42.0644 38.6548 42.1097 38.587 42.1406 38.5123C42.1715 38.4376 42.1874 38.3576 42.1873 38.2768V34.9721C42.1876 34.8912 42.1718 34.811 42.141 34.7362C42.1102 34.6614 42.0649 34.5933 42.0077 34.5361C41.9506 34.4788 41.8827 34.4333 41.8079 34.4023C41.7332 34.3714 41.653 34.3554 41.5721 34.3555Z" fill="white"/>
<path d="M44.3848 14.3576H37.8105L35.3798 5.70285C35.3435 5.57369 35.266 5.45992 35.1591 5.37888C35.0521 5.29784 34.9216 5.25395 34.7875 5.25391H10.2115C10.0773 5.25395 9.94682 5.29784 9.83989 5.37888C9.73295 5.45992 9.65542 5.57369 9.6191 5.70285L7.18805 14.3576H0.615234C0.452247 14.3576 0.295919 14.4223 0.18057 14.5374C0.0652219 14.6526 0.000279408 14.8088 0 14.9718L0 38.6281C0.000930481 39.4437 0.325325 40.2256 0.902018 40.8022C1.47871 41.3789 2.26061 41.7033 3.07617 41.7043H41.9238C42.7394 41.7033 43.5213 41.3789 44.098 40.8022C44.6747 40.2256 44.9991 39.4437 45 38.6281V14.9718C44.9998 14.8088 44.9349 14.6525 44.8195 14.5373C44.7042 14.4222 44.5478 14.3575 44.3848 14.3576ZM10.6777 6.48438H34.3223L36.5333 14.3576H34.1603L32.7164 9.21848C32.6802 9.08931 32.6028 8.97552 32.4959 8.89447C32.389 8.81342 32.2585 8.76954 32.1244 8.76953H12.8756C12.7414 8.76958 12.611 8.81346 12.504 8.89451C12.3971 8.97555 12.3196 9.08931 12.2832 9.21848L10.8397 14.3576H8.46598L10.6777 6.48438ZM32.8823 14.3576H12.118L13.3418 10H31.6582L32.8823 14.3576ZM1.23047 15.5881H43.7695V23.0226C43.769 23.5119 43.5743 23.9811 43.2283 24.3271C42.8823 24.6731 42.4132 24.8677 41.9238 24.8683H3.07617C2.58683 24.8677 2.11769 24.6731 1.77168 24.3271C1.42566 23.9811 1.23103 23.5119 1.23047 23.0226V15.5881ZM30.9727 26.0973V29.7184H28.6875V26.0973H30.9727ZM16.3125 26.0973V29.7184H14.0273V26.0973H16.3125ZM43.7695 38.6291C43.769 39.1185 43.5743 39.5876 43.2283 39.9336C42.8823 40.2797 42.4132 40.4743 41.9238 40.4748H3.07617C2.58683 40.4743 2.11769 40.2797 1.77168 39.9336C1.42566 39.5876 1.23103 39.1185 1.23047 38.6291V25.4807C1.76369 25.8788 2.41074 26.095 3.07617 26.0973H12.7969V30.3351C12.7969 30.4983 12.8617 30.6547 12.9771 30.7701C13.0925 30.8855 13.2489 30.9503 13.4121 30.9503H16.9277C17.0909 30.9502 17.2473 30.8854 17.3627 30.77C17.478 30.6547 17.5429 30.4982 17.543 30.3351V26.097H27.457V30.3351C27.457 30.4983 27.5219 30.6547 27.6372 30.7701C27.7526 30.8855 27.9091 30.9503 28.0723 30.9503H31.5879C31.751 30.9502 31.9075 30.8854 32.0228 30.77C32.1382 30.6547 32.203 30.4982 32.2031 30.3351V26.097H41.9238C42.5892 26.0945 43.2362 25.8783 43.7695 25.4804V38.6291Z" fill="white"/>
</svg>
