<svg width="133" height="106" viewBox="0 0 133 106" fill="none" xmlns="http://www.w3.org/2000/svg">
<g clip-path="url(#clip0_3802_24)">
<path d="M120.048 41.7342C119.028 40.4128 118.415 39.573 117.705 38.7889C116.995 38.0047 115.811 37.7334 115.099 38.5027C114.624 39.0156 114.46 40.0657 114.532 40.8594C114.657 41.7426 115.367 42.5267 116.039 43.6908C114.276 43.7533 113.129 43.1021 111.893 42.7413C110.213 42.2787 109.242 42.6003 108.833 43.6721C108.425 44.744 108.949 45.8741 110.288 46.414C113.263 47.5616 116.335 48.6536 119.354 49.6561C121.382 50.276 122.635 49.5528 123.208 47.4308C123.61 46.1243 123.716 44.75 124.118 43.4434C124.863 40.5061 125.608 37.5688 126.353 34.6315C126.711 33.4701 126.535 32.4973 125.343 31.9913C124.3 31.5193 122.847 32.119 122.342 33.2465C121.881 34.2287 121.569 35.2449 121.256 36.2611C120.913 37.8919 120.57 39.5227 120.048 41.7342Z" fill="#83CD20"/>
<path d="M40.5258 60.4292C40.1639 59.8024 40.0982 59.2434 39.795 58.9409C39.1958 58.5705 38.3521 58.2219 37.767 58.321C37.2782 58.3644 36.6178 59.2233 36.5872 59.8378C36.378 61.0331 36.6129 62.3301 36.5588 63.794C35.9877 64.3625 35.2686 64.8971 34.6528 65.6108C33.8443 66.4357 33.3837 67.418 34.1521 68.5264C35.0169 69.5791 36.0391 69.3471 36.9956 68.5561C37.2847 68.3892 37.4774 68.2779 37.8111 67.9658C38.8545 68.4379 39.5853 69.9262 41.127 69.0361C43.0541 67.9235 41.6864 66.4448 41.7922 65.0704C42.3633 64.5019 42.9344 63.9334 43.5572 63.4545C44.4174 62.7191 44.878 61.7368 44.2647 60.897C43.8582 60.4154 42.7772 60.3232 42.0369 60.1537C41.4447 60.018 41.111 60.3301 40.5258 60.4292Z" fill="#83CD20"/>
<path d="M51.4673 33.0977C50.8657 34.2808 50.257 35.2291 51.07 36.1924C51.8831 37.1556 52.9054 36.9235 54.0616 36.256C57.0486 34.5314 60.0873 32.8964 63.0743 31.1719C64.1342 30.56 65.046 29.9141 64.663 28.5832C64.4351 27.5209 63.0439 26.8915 61.7396 27.5251C58.2639 29.2931 54.8914 31.2402 51.4673 33.0977Z" fill="#83CD20"/>
<path d="M23.3674 86.3321C22.2483 85.3068 20.5029 85.4788 20.1775 86.7411C19.5314 89.5019 19.1392 92.4743 18.9447 95.3325C18.9538 95.8048 20.0683 96.594 20.7692 96.6668C21.724 96.9513 22.4067 96.0796 22.6378 95.1105C23.0908 92.6999 23.445 90.3465 23.7475 87.9035C23.7855 87.2846 23.4236 86.6578 23.3674 86.3321Z" fill="#83CD20"/>
<path d="M80.52 22.889C79.9795 22.8429 79.0395 22.5499 78.2616 22.7602C75.9726 23.246 73.7354 23.8214 71.4981 24.3968C70.4758 24.6288 69.8601 25.3425 69.9399 26.3709C70.0715 27.4888 70.8775 28.2173 71.8998 27.9852C74.6776 27.456 77.4553 26.9267 80.078 26.1288C81.4857 25.6743 81.6808 24.0096 80.52 22.889Z" fill="#83CD20"/>
<path d="M44.574 43.405C43.4648 42.3739 41.9467 42.4147 41.4414 43.5421C40.3414 46.0874 39.3965 48.9013 38.5927 51.5143C38.2801 52.5305 39.0415 53.4042 40.1742 53.586C41.3069 53.7677 42.019 52.9984 42.3316 51.9822C43.0531 49.8942 43.8264 47.8957 44.4516 45.8633C44.8159 44.9367 44.6397 43.9639 44.574 43.405Z" fill="#83CD20"/>
<path d="M42.3895 71.8868C42.2414 71.8528 41.3014 71.5598 40.7233 71.8936C40.1451 72.2274 39.5435 73.4105 39.6609 74.059C40.3823 76.866 41.9708 79.1723 44.6121 80.632C45.5592 81.1597 46.5885 81.1624 47.3452 80.2479C48.1984 79.2778 47.7331 78.472 47.0234 77.6878C45.6487 75.9744 44.2224 74.1714 42.3895 71.8868Z" fill="#83CD20"/>
<path d="M111.3 31.0275C110.101 30.2868 108.304 29.1757 106.365 28.2655C105.47 27.8273 104.344 27.8803 103.639 28.8843C102.889 30.0334 103.406 30.9288 104.308 31.6017C105.81 32.645 107.356 33.543 108.858 34.5863C110.36 35.6295 111.492 35.8112 112.249 34.8968C113.154 34.0162 112.867 32.6297 111.3 31.0275Z" fill="#83CD20"/>
<path d="M59.6074 83.9135C60.6086 82.9773 60.4112 81.3004 59.1305 81.0848C56.5173 80.5639 53.9111 80.2778 51.2603 80.1368C50.7197 80.0907 49.8079 80.7366 49.6739 81.1721C49.4953 81.7528 49.6715 82.7255 50.1744 83.1515C51.394 84.5963 57.1468 85.2147 58.9329 84.3029C59.1773 84.2812 59.4147 84.0247 59.6074 83.9135Z" fill="#83CD20"/>
<path d="M68.1417 59.5249C67.2087 59.4666 66.3651 59.118 65.7869 59.4518C65.2088 59.7856 64.5037 60.7896 64.6659 61.2929C65.3731 63.6305 66.2284 66.002 67.2247 68.1727C67.4832 68.6204 68.6676 68.8916 69.2528 68.7926C69.7862 68.604 70.5876 67.5443 70.5736 67.0749C69.8593 64.5026 69.004 62.1311 68.1417 59.5249Z" fill="#83CD20"/>
<path d="M95.9582 27.8269C96.8043 26.6221 96.7762 25.6833 95.8738 25.0104C95.2746 24.64 94.4826 24.3809 93.7424 24.2114C92.2619 23.8723 90.5886 23.6444 89.1081 23.3053C88.0718 23.068 87.2939 23.2783 86.7816 24.171C86.1282 25.2646 86.5935 26.0705 87.4441 26.6538C87.8436 26.9007 88.2431 27.1476 88.6873 27.2493C90.4122 27.5667 92.1888 27.9736 93.9584 28.1458C94.5506 28.2815 95.3731 27.926 95.9582 27.8269Z" fill="#83CD20"/>
<path d="M25.9451 74.3375C25.1578 75.8666 24.126 77.4173 23.5384 79.0699C23.0778 80.0521 23.4984 81.0032 24.5864 81.3301C25.6745 81.657 26.3936 81.1224 27.0987 80.1184C27.893 78.8241 28.7908 77.7088 29.7332 76.4484C30.49 75.5339 30.9507 74.5516 30.1376 73.5884C29.4279 72.8042 28.1542 72.8233 26.9086 73.7812C26.6196 73.9481 26.4786 74.1489 26.2412 74.4053C26.1448 74.461 25.9968 74.4271 25.9451 74.3375Z" fill="#83CD20"/>
<path d="M58.0392 56.0449C57.2472 55.7858 56.6997 55.505 56.1592 55.4589C54.5893 55.4101 53.0195 55.3614 51.4497 55.3126C50.324 55.3656 49.3088 55.8323 49.344 57.0059C49.3651 57.71 50.0818 58.7289 50.674 58.8645C52.6433 59.1602 54.7536 59.255 56.8569 59.1152C57.3457 59.0717 58.0579 58.3025 58.2882 57.8113C58.4668 57.2306 58.1049 56.6039 58.0392 56.0449Z" fill="#83CD20"/>
<path d="M68.3786 78.8498C68.891 77.9571 69.73 76.5176 70.3693 74.9546C70.8746 73.8271 70.4023 72.7866 69.1662 72.4257C68.0782 72.0988 67.3661 72.8681 66.7573 73.8165C66.0076 74.9657 65.3096 76.2044 64.5082 77.264C63.7068 78.3237 62.95 79.2381 63.9628 80.3248C64.7242 81.1985 66.0872 80.8891 67.3774 79.786C67.6148 79.5296 67.7112 79.4739 68.3786 78.8498Z" fill="#83CD20"/>
</g>
<defs>
<clipPath id="clip0_3802_24">
<rect width="124.278" height="49.4215" fill="white" transform="matrix(0.866025 -0.5 -0.5 -0.866025 24.917 105.496)"/>
</clipPath>
</defs>
</svg>
