<svg width="38" height="39" viewBox="0 0 38 39" fill="none" xmlns="http://www.w3.org/2000/svg">
<path fill-rule="evenodd" clip-rule="evenodd" d="M19.4536 35.5318C14.6638 34.3538 10.0513 34.431 5.19293 34.2898C4.24412 34.2624 3.45531 35.0077 3.42673 35.9536C3.39815 36.9002 4.14693 37.6901 5.09573 37.7181C9.70258 37.8518 14.0865 37.7438 18.6362 38.8618C19.5564 39.0881 20.4881 38.5251 20.711 37.606C20.9396 36.6875 20.3738 35.7576 19.4536 35.5318Z" fill="#E3DBD8"/>
<path fill-rule="evenodd" clip-rule="evenodd" d="M28.7355 25.5233C21.4309 17.5316 12.0343 10.0017 2.54623 4.73873C1.71746 4.27976 0.671442 4.57871 0.214188 5.40634C-0.243069 6.23398 0.0541724 7.27879 0.882948 7.73776C10.0566 12.827 19.1446 20.1094 26.2035 27.837C26.8437 28.5354 27.9296 28.584 28.6269 27.9456C29.3243 27.3071 29.3757 26.2217 28.7355 25.5233Z" fill="#E3DBD8"/>
<path fill-rule="evenodd" clip-rule="evenodd" d="M36.7151 23.4973C37.9211 16.188 35.8635 8.65419 32.9542 2.00798C32.5713 1.14091 31.5596 0.74537 30.6966 1.12432C29.8278 1.50384 29.4334 2.51611 29.8106 3.38318C32.4627 9.4361 34.4289 16.2818 33.3315 22.9388C33.1772 23.8728 33.8116 24.7559 34.7433 24.9096C35.6749 25.0639 36.5608 24.4306 36.7151 23.4973Z" fill="#E3DBD8"/>
</svg>
