<svg width="45" height="46" viewBox="0 0 45 46" fill="none" xmlns="http://www.w3.org/2000/svg">
<g clip-path="url(#clip0_3808_40)">
<path d="M44.3848 21.1068H33.7978V14.0643C33.7977 13.9012 33.7329 13.7447 33.6175 13.6294C33.5022 13.514 33.3457 13.4492 33.1826 13.4491H23.1152V12.4418H31.4265C31.5897 12.4417 31.7461 12.3769 31.8615 12.2615C31.9768 12.1462 32.0417 11.9897 32.0418 11.8266V6.64844C32.0417 6.4853 31.9768 6.32886 31.8615 6.21351C31.7461 6.09815 31.5897 6.0333 31.4265 6.0332H23.1152V4.92754C23.5745 4.78079 23.9663 4.4747 24.2197 4.06451C24.4731 3.65432 24.5716 3.16704 24.4974 2.69062C24.4231 2.2142 24.181 1.78001 23.8147 1.46642C23.4485 1.15282 22.9822 0.980469 22.5 0.980469C22.0178 0.980469 21.5515 1.15282 21.1853 1.46642C20.819 1.78001 20.5769 2.2142 20.5026 2.69062C20.4284 3.16704 20.5269 3.65432 20.7803 4.06451C21.0337 4.4747 21.4255 4.78079 21.8848 4.92754V13.4491H11.8174C11.6543 13.4491 11.4978 13.5139 11.3824 13.6293C11.267 13.7446 11.2022 13.9011 11.2022 14.0643V21.1068H0.615235C0.534353 21.1068 0.454264 21.1227 0.379551 21.1537C0.304839 21.1847 0.236969 21.2301 0.179826 21.2874C0.122682 21.3446 0.0773861 21.4126 0.0465298 21.4873C0.0156734 21.5621 -0.000137752 21.6422 9.041e-07 21.7231V45.3657C9.041e-07 45.5288 0.06482 45.6853 0.180199 45.8007C0.295578 45.9161 0.452065 45.9809 0.615235 45.9809H44.3848C44.5479 45.9809 44.7044 45.9161 44.8198 45.8007C44.9352 45.6853 45 45.5288 45 45.3657V21.7231C45.0001 21.6422 44.9843 21.5621 44.9535 21.4873C44.9226 21.4126 44.8773 21.3446 44.8202 21.2874C44.763 21.2301 44.6952 21.1847 44.6204 21.1537C44.5457 21.1227 44.4656 21.1068 44.3848 21.1068ZM23.1152 11.2114V9.85188H30.8113V11.2114H23.1152ZM30.8113 7.26367V8.62141H23.1152V7.26367H30.8113ZM22.5 2.21137C22.6564 2.21137 22.8094 2.25776 22.9395 2.34468C23.0695 2.4316 23.1709 2.55514 23.2308 2.69968C23.2907 2.84421 23.3063 3.00326 23.2758 3.1567C23.2453 3.31015 23.17 3.45109 23.0593 3.56172C22.9487 3.67234 22.8078 3.74768 22.6543 3.7782C22.5009 3.80872 22.3418 3.79306 22.1973 3.73319C22.0528 3.67332 21.9292 3.57193 21.8423 3.44185C21.7554 3.31177 21.709 3.15883 21.709 3.00238C21.7093 2.79268 21.7927 2.59164 21.941 2.44336C22.0893 2.29508 22.2903 2.21165 22.5 2.21137ZM43.7695 22.3373V41.0959H33.7978V22.3373H43.7695ZM12.4327 14.6795H32.5673V41.0959H29.6016V31.8249C29.6005 30.9161 29.2391 30.0448 28.5965 29.4022C27.9539 28.7596 27.0826 28.3982 26.1738 28.3972H18.8279C17.9192 28.3982 17.0479 28.7596 16.4053 29.4022C15.7627 30.0448 15.4012 30.9161 15.4002 31.8249V41.0959H12.4327V14.6795ZM16.6307 41.0959V31.8249C16.6313 31.2423 16.863 30.6838 17.275 30.2719C17.6869 29.86 18.2454 29.6283 18.8279 29.6276H21.8865V41.0959H16.6307ZM23.1152 29.6276H26.1721C26.7546 29.6283 27.3131 29.86 27.7251 30.2719C28.137 30.6838 28.3687 31.2423 28.3693 31.8249V41.0959H23.1152V29.6276ZM1.23047 22.3373H11.2022V41.0959H1.23047V22.3373ZM43.7695 44.7504H1.23047V42.3264H43.7695V44.7504Z" fill="white"/>
<path d="M16.0156 26.7227H28.9848C29.0656 26.7227 29.1456 26.7068 29.2203 26.6759C29.2949 26.645 29.3628 26.5997 29.4199 26.5426C29.477 26.4854 29.5224 26.4176 29.5533 26.3429C29.5842 26.2683 29.6 26.1882 29.6 26.1074V22.9785C29.6 22.8153 29.5352 22.6589 29.4198 22.5435C29.3044 22.4281 29.1479 22.3633 28.9848 22.3633H16.0156C15.8525 22.3633 15.696 22.4281 15.5806 22.5435C15.4652 22.6589 15.4004 22.8153 15.4004 22.9785V26.1074C15.4003 26.1882 15.4162 26.2683 15.4471 26.3429C15.478 26.4176 15.5233 26.4854 15.5805 26.5426C15.6376 26.5997 15.7055 26.645 15.7801 26.6759C15.8548 26.7068 15.9348 26.7227 16.0156 26.7227ZM16.6309 23.592H28.3695V25.4922H16.6309V23.592Z" fill="white"/>
<path d="M16.0156 20.701H28.9848C29.1479 20.701 29.3044 20.6362 29.4198 20.5208C29.5352 20.4054 29.6 20.2489 29.6 20.0857V16.9551C29.6 16.7919 29.5352 16.6354 29.4198 16.52C29.3044 16.4047 29.1479 16.3398 28.9848 16.3398H16.0156C15.8525 16.3398 15.696 16.4047 15.5806 16.52C15.4652 16.6354 15.4004 16.7919 15.4004 16.9551V20.0857C15.4004 20.2489 15.4652 20.4054 15.5806 20.5208C15.696 20.6362 15.8525 20.701 16.0156 20.701ZM16.6309 17.5703H28.3695V19.4705H16.6309V17.5703Z" fill="white"/>
<path d="M6.21633 28.3477C5.32312 28.3488 4.46683 28.7041 3.8353 29.3358C3.20378 29.9675 2.84859 30.8238 2.84766 31.717V34.4708C2.84761 34.5516 2.86349 34.6316 2.89439 34.7063C2.9253 34.781 2.97061 34.8488 3.02775 34.906C3.08489 34.9631 3.15273 35.0084 3.2274 35.0393C3.30206 35.0702 3.38208 35.0861 3.46289 35.0861H8.97047C9.13364 35.0861 9.29013 35.0212 9.40551 34.9059C9.52088 34.7905 9.5857 34.634 9.5857 34.4708V31.717C9.58422 30.8239 9.22875 29.9677 8.59719 29.3362C7.96563 28.7046 7.10948 28.3491 6.21633 28.3477ZM8.35523 33.8556H4.07813V31.717C4.07813 31.1498 4.30347 30.6057 4.7046 30.2046C5.10572 29.8035 5.64976 29.5781 6.21703 29.5781C6.7843 29.5781 7.32834 29.8035 7.72947 30.2046C8.13059 30.6057 8.35594 31.1498 8.35594 31.717L8.35523 33.8556Z" fill="white"/>
<path d="M36.0293 35.0861H41.5376C41.6184 35.0861 41.6984 35.0702 41.7731 35.0393C41.8477 35.0084 41.9156 34.9631 41.9727 34.906C42.0299 34.8488 42.0752 34.781 42.1061 34.7063C42.137 34.6316 42.1529 34.5516 42.1528 34.4708V31.717C42.1528 30.8234 41.7978 29.9664 41.1659 29.3345C40.5341 28.7026 39.6771 28.3477 38.7834 28.3477C37.8898 28.3477 37.0328 28.7026 36.4009 29.3345C35.769 29.9664 35.4141 30.8234 35.4141 31.717V34.4708C35.4141 34.634 35.4789 34.7905 35.5943 34.9059C35.7096 35.0212 35.8661 35.0861 36.0293 35.0861ZM36.6445 31.717C36.6445 31.1498 36.8699 30.6057 37.271 30.2046C37.6721 29.8035 38.2162 29.5781 38.7834 29.5781C39.3507 29.5781 39.8948 29.8035 40.2959 30.2046C40.697 30.6057 40.9223 31.1498 40.9223 31.717V33.8556H36.6445V31.717Z" fill="white"/>
</g>
<defs>
<clipPath id="clip0_3808_40">
<rect width="45" height="45" fill="white" transform="translate(0 0.980469)"/>
</clipPath>
</defs>
</svg>
